<svg xmlns="http://www.w3.org/2000/svg" style="display:none" aria-hidden="true">
<!-- Icons from game-icons.net (Lorc, Delapouite) — CC BY 3.0. See assets/CREDITS.md -->
  <symbol id="ic-build" viewBox="0 0 512 512">
    <path fill="currentColor" d="M24 87.002v17.996h472V87.002zm127.04 114.084c-4.514-.074-9.04 2.158-9.04 6.914v60.988l18-34V208c.053-4.462-4.448-6.84-8.96-6.914zm209.92 0c-4.512.074-9.013 2.452-8.96 6.914v26.988l18 34V208c0-4.756-4.526-6.988-9.04-6.914zM181.419 233L72.359 439h77.42l54.53-206zm41.508 0l-12.176 46H247v-46zM265 233v126h56.4l-34.279-126zm40.775 0l69.104 254h17.935l-11.447-49.799L412.564 487h52.489L330.582 233zM64 281c-7.62 0-14.45 1.658-18.604 3.734-3.271 1.636-4.106 2.98-4.318 3.266.212.287 1.047 1.63 4.318 3.266C49.55 293.342 56.38 295 64 295c7.62 0 14.45-1.658 18.604-3.734 3.271-1.636 4.106-2.98 4.318-3.266-.212-.287-1.047-1.63-4.318-3.266C78.45 282.658 71.62 281 64 281zm22.922 7c.057.077.078.095.078 0s-.021-.077-.078 0zm-45.844 0c-.057-.077-.078-.094-.078 0 0 .095.021.077.078 0zM448 281c-7.62 0-14.45 1.658-18.604 3.734-3.271 1.636-4.106 2.98-4.318 3.266.212.287 1.047 1.63 4.318 3.266C433.55 293.342 440.38 295 448 295c7.62 0 14.45-1.658 18.604-3.734 3.271-1.636 4.106-2.98 4.318-3.266-.212-.287-1.047-1.63-4.318-3.266C462.45 282.658 455.62 281 448 281zm22.922 7c.057.077.078.095.078 0s-.021-.077-.078 0zm-45.844 0c-.057-.077-.078-.095-.078 0s.021.077.078 0zm-219.094 9l-50.293 190h22.9l15.253-76.838-3.52 76.838H247V297zM41 308.984v150.782l46-86.889v-63.893C80.3 311.632 72.464 313 64 313s-16.3-1.368-23-4.016zm384 0v63.893l46 86.889V308.984c-6.7 2.648-14.536 4.016-23 4.016s-16.3-1.368-23-4.016zm-368.297 19.29c4.418 0 8 7.163 8 16 0 8.836-3.582 16-8 16s-8-7.164-8-16c0-8.837 3.582-16 8-16zM265 377v110h91.225l-29.926-110zM62.83 457l-15.883 30h90.127l7.942-30H62.83z"/>
  </symbol>
  <symbol id="ic-dredge" viewBox="0 0 512 512">
    <path fill="currentColor" d="M102.5 70.4c-.8 0-1.7.1-2.5.22-30.99 5.31-62.08 74.08-72.4 98.98h226.8l11.9-23.9c-12.4-20-35.3-50.36-58.3-49.08-15.1.8-44 33.98-44 33.98s-35.4-60.51-61.5-60.2zm195.1 53.2l-32 64h-79.7l-40.7 95c22 3.3 41.4 14.7 55 31h87.6c4.8-5.8 10.3-10.9 16.4-15.3l28.6-128.7h48.9l16.3-46zM21 187.6v80l13.57 3.5 35.8-83.5zm68.91 0l-37.77 88.1 25.56 6.7 40.6-94.8zm47.99 0L95.28 287l3.7 1c8.42-3.4 17.52-5.6 27.02-6.2l40.3-94.2zm209.3 0l-22.1 99.5c9.6-3.5 20.1-5.5 30.9-5.5 40.3 0 74.6 27.1 85.4 64H491v-80.5l-46.5-15.5-15.5-62h-34.7zm17.8 14h46l12.5 50h-71l10.8-43.2zm-233 98c-39.32 0-71 31.7-71 71s31.68 71 71 71c39.3 0 71-31.7 71-71s-31.7-71-71-71zm224 0c-39.3 0-71 31.7-71 71s31.7 71 71 71 71-31.7 71-71-31.7-71-71-71zm-320.62 32l-12.4 62h23.05c-1.97-7.3-3.03-15.1-3.03-23 0-14 3.25-27.2 9.04-39zm176.62 0c5.7 11.8 9 25 9 39 0 7.9-1.1 15.7-3 23h52c-1.9-7.3-3-15.1-3-23 0-14 3.3-27.2 9-39zm-80 7a32 32 0 0 1 32 32 32 32 0 0 1-32 32 32 32 0 0 1-32-32 32 32 0 0 1 32-32zm224 0a32 32 0 0 1 32 32 32 32 0 0 1-32 32 32 32 0 0 1-32-32 32 32 0 0 1 32-32zm88.7 25c.2 2.3.3 4.6.3 7 0 10.7-1.9 20.9-5.4 30.5l51.4-20.6v-16.9z"/>
  </symbol>
  <symbol id="ic-grain" viewBox="0 0 512 512">
    <path fill="currentColor" d="M259.9 22.6c-8.4 13.1-16.5 26.3-20.5 39.2 5.3 4.32 10 8.63 14 13.4 5.9-3.56 12.1-6.61 17.7-9.1-.6-14.5-5.6-28.6-11.2-43.5zm-48.8 42.6c-.6 5.7 0 12.9 2.2 19.8 9.6 4.87 17.2 10.27 24.7 16.6 2.6-3.2 4.1-7.3 2.4-13.3-7.8-10.13-18.3-17.9-29.3-23.1zM45.6 70.8c1.2 15.6 2.8 30.9 7.3 43.6 6.93 0 12.96 1.1 19.2 2.3 2.21-6.2 5.6-12.4 8.6-17.9-9.2-11.3-21.6-19.5-35.1-28zm305 .5c-10.2 11.9-20 23.9-25.8 36 4.6 5.1 8.8 9.7 12 15.2 6.3-2.6 12.8-4.8 18.7-6.5 1.5-14.5-1.4-29.2-4.9-44.7zm-53.3 6.6c-12.8 2.1-24 5.79-35 13.3-3.4 5.4-3 9.8-1.3 13.7 9-3.8 19.3-7.28 28.2-8.5 4.3-5.9 6.9-12.9 8.1-18.5zm-176 1.4c1.3 15.6 2.7 30.9 7.3 43.6 6.8.3 13.2.9 19.3 2.3 2.5-6.4 5.5-12.6 8.6-18-9.2-11.2-21.7-19.5-35.2-27.9zM468.8 85c-13.2 8.5-26 17.1-35.1 27.1 2.9 6.2 5.6 11.9 7.1 18 7-.8 13.8-1.1 19.9-.9 5.6-13.4 7-28.3 8.1-44.2zM104.6 96.8c-8.21 7.1-13.83 19.1-15.6 27.1.1 2.4.7 4.3 1.4 5.9 6.22-3.3 13.4-5.2 19.3-6-2.6-8.9-4.1-18-5.1-27zm79.9 4c-10.2 10-17.3 23.1-19.8 31.6.5 6.6 3.5 9.9 7.1 12 4.9-8.6 11-17.5 17.4-24-.2-7.2-2.2-14.4-4.7-19.6zm21.4 1c-.3 2.7-.2 5 .3 7.5 7.1 5.9 12.9 14.3 15.4 21.7 3.7 2.6 7.3 5.3 10.5 8 3-3.2 4.9-7.5 3.1-14.1-7.9-10.1-18.4-17.7-29.3-23.1zm200.7 1.6c-2.8 4.9-5.4 11.7-6.2 18.9 6.6 8.5 11.6 16.4 15.5 25.4 3.6-1.8 6.6-4.8 7.7-10.9-1.1-6.5-4.1-13.2-7-18.6-2.9-5.5-6.6-10.8-10-14.8zm-114.5 11.1c-13.7 2.9-26.1 6.8-34.9 13.3-2.6 4.9-3.4 10.8-.9 15.1 8.5-3.6 18.1-6.7 26.4-8.2 4.4-5.9 7.9-13.5 9.4-20.2zm18.2 3.7c-1 5.2-3 10.3-5.5 15.3 4.9 4.3 9.3 8.5 13.2 13.1 3-2.8 5-6.7 4.3-12.8-2.7-5.3-7.7-11.2-12-15.6zm56.8 14c-8.1 1.1-15.9 3.8-23.5 7.3-4.2 5-4.5 9.5-3.4 13.6 5.5-1.7 11-2.6 16.2-3.6 2.3-2.3 4.6-3.9 7.3-5.9.8-3.9 1.9-7.8 3.4-11.4zm-334.8 2c3 4.8 7.8 10.3 13.7 14.5 10.58-2 19.99-2.1 29.8-1.7.1-4-1.1-8.2-6.1-12-11.37-3.1-25.19-3.3-37.4-.8zm170.2-1.1c-9 8.9-16.6 21.4-19.9 31.8 1 5.5 3.9 10.6 8.4 12.5 4.7-7.9 10.3-16.3 16.1-22.4-.2-7.6-1.8-15.6-4.6-21.9zm184.1 1.4c-3.5 7.3-5.8 14.1-6.4 20.9 6.3 8 10.6 15.5 14.6 23.9 5.4-3.3 7.9-6.9 8.8-11.4-2.9-12.6-9.1-24-17-33.4zm-278.5 8.2c2.9 4.8 7.7 10.3 13.6 14.5 10.6-1.8 20-2.5 29.8-1.7.2-4.1-1.2-8.3-6.1-12.1-11.4-3-25-3.3-37.3-.7zm332.9 6.8c-5.3 3.8-5.5 6.6-5.7 10.8 2.7 0 5.6.2 8.4.4 7.1.7 14.2 1.7 20.8 3.6 6.4-3.6 11.8-8.8 15.2-13.4-9.7-3-27.8-5.3-38.7-1.4zm-154 3.1c-12.5 2.3-26 6.2-35 13.5-5 8.2-1.1 15.9 4 20 6.8.3 15.9-5.5 22.6-14.6 4.4-6 7.2-13.1 8.4-18.9zm17.6 6c-1.3 5.3-3.5 10.5-6.3 15.5 3.1 2.9 6.1 5.8 8.7 8.8 3.4-2.9 5.9-6.8 5.1-13.6-1.9-3.7-4.7-7.4-7.5-10.7zm-254.3 8c3.1 5 8.1 10.7 14.3 14.9l.9.6c10.08-1.8 18.95-2 28.2-1.6.4-4.4-.6-9-6-13.2-11.43-3-25.15-3.2-37.4-.7zm171.1 0c-10.1 6.6-17.7 26.1-19.8 31.7 1.2 9.3 7.2 13.5 15.3 13.7 11.5-12.3 10.9-31.2 4.5-45.4zm-4.5 45.4l-.1.1c.1 0 .1-.1.1-.1zM366 167.1c-2.9 5.1-5.6 12.1-6.3 19.6-1.2 11.3 1.7 21.7 7 26 8.7-1.1 14.5-3.2 16.3-12.2-1.1-6.4-4.1-13.1-7-18.6-2.9-5.5-6.6-10.8-10-14.8zm-21.5 3.4c-3.6.7-9.8 4-11.1 4.6-3.1 4.6-4.9 10.3-2.9 14.9 3.9-1 7.4-2 11-2.6.5-5.8 1.6-12 3-16.9zM126 175.1c4.6 6.5 9.8 11.6 15.3 15.5 9.7-1.5 20-1.9 28.2-1.7.3-4.3-.7-9-6.1-13.2-11.4-3-25.1-3.1-37.4-.6zm296.5 4.4c-5.4 4-7.2 8.2-7.2 13.4 9.2.3 19.2 1.5 27.3 3.6 6.5-3.8 12.9-9 17.1-14.5-10.6-5-27.8-4.9-37.2-2.5zm-134.9 9.2c-3.7 4-7.8 7.5-12.4 10.2 1.9 8.1 7.4 20.9 14.4 24.1-1-.4 3.7-.2 7.1-3 11.6-12.9 1.4-20.8-9.1-31.3zM69.2 200.1c3.1 5 8.1 10.7 14.3 14.9 9.5 6.3 19.9 8.7 26.3 6.1-1 .4 2.4-2.7 2.8-7.1.4-4.4-.7-9-6.1-13.2-11.37-3-25.07-3.2-37.3-.7zm173.9-.7c-.3 1.5-.6 2.9-1 4.4l1.1 137.1c6-.1 12-.2 18-.1l-1-127.9c-1-2.9-1.8-5.9-2.4-8.8-5.4.2-11.2-1.8-14.7-4.7zm99.7 6.2c-6.7.9-15.9 4.6-19.8 6.7-6.3 8.3-3.6 15.2 1.1 20.5 10-.5 20.1-6.3 25.3-12.3-3.2-4.4-5.3-9.6-6.6-14.9zm-197.9 3c3.1 5 8.1 10.7 14.3 14.9 9.4 6.3 20 8.7 26.3 6.1 3.2-8.3 4-14.5-3.2-20.3-11.4-3-25.2-3.2-37.4-.7zm249.8 16.1c0 4.4 3.1 7.8 2.1 7.3 6.1 3.1 16.8 1.7 26.8-3.9 6.5-3.6 12-8.8 15.5-13.5-14.4-3.2-43.6-9.5-44.4 10.1zm-264.8-5.1c-.6 3.5-1.7 6.8-3.5 9.7 20.3 36.9 37.7 77.7 51.6 117.6 5.8-1 11.9-1.8 18.2-2.6-11.8-34.7-26.4-70.1-43.3-103.5-8.8-5.6-17.9-13.4-23-21.2zm75.7 9.1c-.8 4-2.3 7.8-4.7 10.9 8.5 33.8 15 68.2 19.5 102.4 6-.5 12-.8 18.1-1-4.8-36.8-11.9-74-21.3-110.5-3.9.4-7.8-.4-11.6-1.8zM377 230c-4.2 1.2-8.4 1.7-12.5 1-19.9 35.2-38 74.2-51 113.8 6.3 1 12.4 2.1 18.2 3.4 12.4-37.4 29.5-74.6 48.5-108.2-1.7-3-2.7-6.4-3.2-10zm-72.5 6.6c-3.8 2.5-8 4.2-12.2 4.5-8.3 32.2-15.6 66-21.3 100 6.1.2 12.2.5 18.1 1 5.5-33 12.7-66.1 20.7-97.5-2.2-2.2-3.9-5-5.3-8zM169.9 366.9c-.4 11.7 4.7 24.4 16.5 36.2 48-9.1 97.8-10 145.1 3.2 12.5-10 17-21.1 17.8-34.6-56.8-15.2-121.5-16.3-179.4-4.8zm84.4 47.3c-9 0-18 .5-27 1.3 1.1 20.1 1.5 40 1.3 59.2-2.4-17.8-6.2-37.4-11.2-58.2-6 .7-12 1.5-18 2.5 5.6 22.5 9.7 43.6 12 62.1l17.2-2.1c-.1 2.8-.1 5.6-.2 8.4l18 .4c.2-7 .3-14.1.3-21.2l12.7-.2c-.1 7.8.1 15.5.4 23l18-.8c-1-23-.2-47.7 2-73.4-8.5-.7-17-1-25.5-1zm42.1 2.9c-3 21.6-3.9 42.9-2.1 63.3l18-1.6c-1.6-18.5-.8-38.2 2-58.4-5.9-1.3-11.9-2.4-17.9-3.3z"/>
  </symbol>
  <symbol id="ic-mouth" viewBox="0 0 512 512">
    <path fill="currentColor" d="M136 40.938l-88 44V184h176V84.937l-88-44zM480 48l-240 80v32l240 64V48zM64 96h31.406l.313 64H64V96zm47.406 0h48l.313 64h-48l-.314-64zm64 0H208v64h-32.28l-.314-64zM79.312 201L19.094 487h233.812l-.094-.438.125.094c7.327-10.582 26.22-22.905 46.032-28.22 10.19 18.728 29.766 30.564 53.03 30.564h4.125l2.688-3.125c11.347-13.123 19.005-24.272 35.843-27.906C404.94 477.692 426.263 489 448 489h5.25l2.594-4.563c8.78-15.503 11.158-17.993 28.844-28.75l-9.375-15.375c-16.44 10-24.038 17.37-32.063 30.344-15.508-1.633-29.613-11.073-34.75-25.656l-2.344-6.625-7 .656c-26.106 2.45-39.755 18.452-51.062 31.72-17.555-1.233-29.83-10.616-35.688-25.97l-2.656-6.967-7.375 1.343c-20.77 3.78-40.482 13.32-54.094 25.813L192.688 201H79.313zM87 256h18v48H87v-48zm80 128h18v48h-18v-48z"/>
  </symbol>
  <symbol id="ic-river" viewBox="0 0 512 512">
    <path fill="currentColor" d="M357.676 20.387c-2.612.01-5.23.105-7.856.29-63.314 4.438-131.13 58.006-142.117 130.253L494 162.992V89.656c-8.09-7.792-16.415-15.25-24.953-22.177-34.59-28.067-72.195-47.234-111.37-47.093zM125.55 40.812C89.363 40.94 51.743 55.725 18 86.825v81.3l172.107-18.815-.363-.054c3.872-26.688 14.327-50.957 29.162-71.742-26.973-24.13-59.536-36.82-93.357-36.7zm110.263 129.514c-24.49-.258-109.87 12.136-109.602 27.078.46 25.55 104.433 51.553 94.726 53.018C122.553 265.27 67.968 265.427 35.34 295.2c-38.914 35.507 214.983 80.92 184.422 89.687-57.204 16.412-107.82 36.256-109.002 88.414-.17 7.52.8 14.385 2.705 20.7h54.945c-15.423-20.635-24.05-40.664-14.6-45.912 10.413 15.107 22.492 31.126 36.174 45.912h64.286c-19.474-9.912-51.732-29.408-50.594-49.424 1.6-28.17 66.37-47.758 69.883-47.758 0 0-48.786 26.384-49.867 49.866-.767 16.68 22.317 36.985 35.69 47.316h51.976c-16.454-12.325-26.478-24.92-20.426-31.885 15.54 11.066 33.115 22.438 51.826 31.885h106.717c-56.74-15.988-102.683-32.67-115.225-53.127-10.196-16.63 72.362-27.836 60.408-78.902-5.79-24.738-58.24-41.094-203.222-62.626-25.368-3.768 134.358-19.456 129.818-57.11-2.65-21.98-103.288-26.85-114.58-36.933-4.746-4.237 5.863-29.56 29.137-34.974zM91.425 308.056c33.376-.145 84.385 22.424 122.8 36.747l-1.79 11.67c-28.404-10.606-103.905-37.464-127.442-48.077 2.06-.22 4.207-.332 6.432-.34zm270.234 53.803c.103-.006.1.077-.015.253 3.9 12.183-21.487 44.05-61.807 42.842 14.153-7.15 59.732-43.004 61.822-43.096z"/>
  </symbol>
  <symbol id="ic-salt" viewBox="0 0 512 512">
    <path fill="currentColor" d="M279.406 20c-22.566.257-41.433 6.548-53.187 18.844l-.626-.375-1.78 3.093c-1.508 1.848-2.89 3.787-4.095 5.874-1.197 2.07-2.19 4.228-3.032 6.438l-36.125 62.563-4.688 8.124-5.313 9.188c-.077.134-.142.272-.218.406L62.064 321.72c-12.087 20.93-7.338 47.287 7.248 71.717 14.587 24.43 39.327 48.134 71.032 66.438 31.704 18.304 64.58 27.864 93.03 28.28 28.452.42 53.666-8.63 65.75-29.56l108.532-187.97 4.625-8 4.626-8.063 36.53-63.25c1.662-1.983 3.163-4.11 4.47-6.375 1.29-2.232 2.338-4.543 3.22-6.937l.812-1.375-.282-.156c12.272-37.432-23.027-92.36-84-127.564-33.91-19.578-69.14-29.237-98.25-28.906zm32.97 19.313c4.743.044 10.416 1.66 15.874 4.812 10.916 6.302 16.874 16.395 13.313 22.563-3.562 6.167-15.303 6.052-26.22-.25-10.916-6.303-16.873-16.395-13.312-22.563 1.782-3.084 5.6-4.607 10.345-4.563zm-57.095 7.593c4.745.044 10.387 1.662 15.845 4.813 10.916 6.3 16.905 16.393 13.344 22.56-3.563 6.17-15.304 6.054-26.22-.25-10.916-6.3-16.874-16.393-13.313-22.56 1.78-3.085 5.6-4.608 10.344-4.564zm133 36.22c4.745.043 10.387 1.66 15.845 4.81 10.916 6.304 16.905 16.396 13.344 22.564-3.563 6.168-15.304 6.084-26.22-.22-10.916-6.3-16.874-16.425-13.313-22.593 1.78-3.083 5.6-4.606 10.344-4.562zm-171.717 8.343c3.616 12.197 10.345 24.915 19.75 37.374L195.5 198.438c-.536-.846-1.09-1.69-1.594-2.532-12.515-20.96-14.71-39.73-7.156-52.812l29.813-51.625zM335.125 93c4.744.044 10.417 1.66 15.875 4.813 10.916 6.302 16.874 16.425 13.313 22.593-3.562 6.168-15.303 6.053-26.22-.25-10.916-6.302-16.873-16.426-13.312-22.594 1.782-3.083 5.6-4.606 10.345-4.562zM275.5 103.188c4.744.044 10.386 1.66 15.844 4.812 10.916 6.302 16.874 16.395 13.312 22.563-3.56 6.167-15.27 6.083-26.187-.22-10.918-6.302-16.906-16.425-13.345-22.593 1.78-3.084 5.63-4.607 10.375-4.563zm138.688 35.468c4.743.044 10.416 1.662 15.875 4.813 10.916 6.3 16.873 16.393 13.312 22.56-3.56 6.17-15.302 6.054-26.22-.25-10.915-6.3-16.873-16.393-13.31-22.56 1.78-3.085 5.6-4.608 10.342-4.564zm-62.813 8.375c4.744.045 10.417 1.63 15.875 4.782 10.916 6.303 16.874 16.426 13.313 22.594-3.562 6.168-15.303 6.053-26.22-.25-10.916-6.302-16.873-16.426-13.312-22.594 1.782-3.083 5.6-4.575 10.345-4.53zm-75.906 20.25c5.026 3.787 10.32 7.44 15.842 10.94l-41.718 72.25c-5.707-3.656-11.103-7.494-16.188-11.47l42.063-71.72zm32 20.345c41.19 21.913 83.48 29.3 113.78 22.063l-29.78 51.593c-7.556 13.086-24.873 20.578-49.283 20.22-22.31-.327-49.572-7.498-76.437-21.625l41.72-72.25z"/>
  </symbol>
  <symbol id="ic-ship" viewBox="0 0 512 512">
    <path fill="currentColor" d="M80 23v18h23v14h18V41h23V23zm-8.2 50L42.38 279H135V144.5H95.5v-49H135V73zM185 137v46h78v-46zm96 0v46h78v-46zm96 0v46h78v-46zm-192 64v46h78v-46zm96 0v46h78v-46zm96 0v46h78v-46zm-192 64v46h78v-46zm96 0v46h19.3l32-32H359v-14zm96 0v14h78v-14zM27.22 297l24.11 108.5C76.75 398.1 105.7 391 128 391c24.2 0 46.2 8.6 67.2 16.6 21 8 41 15.4 60.8 15.4 19.8 0 39.8-7.4 60.8-15.4 19-7.2 38.9-15 60.5-16.4l-44.1-14.7 5.6-17 36.2 12V345h-17v-18h17v-30h-35.3l-32 32H154.4l-16-32zM393 297v30h17v18h-17v26.5l36.2-12 5.6 17-44 14.7c12.1.7 25.7 3.1 39.4 6.2 5.4-7.1 10.8-15.3 16.1-24 14.9-24.9 28.2-53.9 36.8-76.4zM128 407c-24.2 0-56.26 8.3-83.09 16.4-10.02 3-19.26 6-26.91 8.7v19c8.36-3 19.57-6.7 32.11-10.5C76.28 432.7 108.2 425 128 425c19.8 0 39.8 7.4 60.8 15.4s43 16.6 67.2 16.6c24.2 0 46.2-8.6 67.2-16.6 21-8 41-15.4 60.8-15.4 19.8 0 51.7 7.7 77.9 15.6 12.5 3.8 23.7 7.5 32.1 10.5v-19c-7.7-2.6-16.9-5.7-26.9-8.7-26.8-8.1-58.9-16.4-83.1-16.4-24.2 0-46.2 8.6-67.2 16.6-21 8-41 15.4-60.8 15.4-19.8 0-39.8-7.4-60.8-15.4S152.2 407 128 407zm0 36c-24.2 0-56.26 8.3-83.09 16.4-10.02 3-19.26 6-26.91 8.7v19c8.36-3 19.57-6.7 32.11-10.5C76.28 468.7 108.2 461 128 461c19.8 0 39.8 7.4 60.8 15.4s43 16.6 67.2 16.6c24.2 0 46.2-8.6 67.2-16.6 21-8 41-15.4 60.8-15.4 19.8 0 51.7 7.7 77.9 15.6 12.5 3.8 23.7 7.5 32.1 10.5v-19c-7.7-2.6-16.9-5.7-26.9-8.7-26.8-8.1-58.9-16.4-83.1-16.4-24.2 0-46.2 8.6-67.2 16.6-21 8-41 15.4-60.8 15.4-19.8 0-39.8-7.4-60.8-15.4S152.2 443 128 443z"/>
  </symbol>
  <symbol id="ic-silted" viewBox="0 0 512 512">
    <path fill="currentColor" d="M220.09 25.297c-34.308 4.9-67.18 17.336-94.668 37.256l69.03 139.824-109.487-99.363c-28.304 39.302-42.5 93.27-31.61 163.675l15.22 94.37 70.474-13.275 3.458 18.365-15.444 2.91 44.65 127.653H197.2l-7.827-62.03 18.533-2.34 8.123 64.37h29.72V431.22h18.688v65.493h29.724l8.12-64.37 18.536 2.34-7.828 62.03h25.578l44.465-127.135-18.195-3.428 3.46-18.365 70.362 13.252 18.28-94.455c10.763-69.744-3.717-123.52-32.372-162.865l-108.713 98.66L384.36 63.613c-27.52-20.056-60.386-32.763-94.653-37.982l-34.52 164.485L220.09 25.297zm-92.182 192.266c4.232.063 8.63.81 13.186 2.208-7.603 6.918-12.375 16.89-12.375 27.978 0 20.887 16.93 37.816 37.813 37.816 15.928 0 29.548-9.85 35.12-23.793l29.136 22.365-81.8 26.383-.226.062c-15.9 4.26-30.327.71-40.15-7.498-9.82-8.21-15.218-20.12-17.12-32.207-1.902-12.086-.44-24.64 5.342-35.068 5.78-10.43 17.11-18.454 31.072-18.244zm216.53 16.656c-1.612 4.2-2.502 8.76-2.502 13.528 0 20.887 16.93 37.816 37.814 37.816s37.814-16.93 37.814-37.816c0-.565-.018-1.125-.043-1.684 2.2 7.927 2.488 16.48 1.177 24.81-1.902 12.087-7.3 24-17.12 32.208-9.823 8.21-24.248 11.76-40.15 7.498l-.226-.062-81.8-26.383 65.038-49.916zm-89.21 57.173l40.026 101.834-17.07 7.064-22.957-35.558-22.957 35.56-17.66-7.065 40.617-101.834z"/>
  </symbol>
  <symbol id="ic-station" viewBox="0 0 512 512">
    <path fill="currentColor" d="M17 17v104.2l86 23.7V17zm0 122.8c-1.4 99.4 1.35 296.5 1 296.7.12 0 .23-.1.35-.2C31.89 428 48.05 419 64 419c15.97 0 27.59 10 37.6 18 10 8 18.5 14 26.4 14 3 0 6.1-.9 9.3-2.4l90.9-250.5zm86 68.2h18v18l23 5.2-4 17.6-19-4.3v58.9c1.2-1.4 2.3-2.7 3.4-4.2 5.6-7.5 9.6-15.3 9.6-15.3l16 8.2s-4.5 8.9-11.2 17.9c-3.3 4.4-7.2 9-11.9 12.7-4.7 3.7-10.6 7-17.8 6.3-8.2-.9-14.33-5.9-19.04-11.5-4.7-5.5-8.35-12-11.36-18.3-6.02-12.7-9.37-24.8-9.37-24.8l17.34-4.8s3.08 10.9 8.28 21.8c2.38 5 5.25 9.9 8.05 13.5v-64.5l-24.98-5.6 3.96-17.6 21.02 4.7zm132.8 22l-8.6 23.7c10.2 17.5 23.3 29.8 38.1 37.8 18.8 10.1 40.1 13.2 61.7 13.5v-18c-19.8-.3-38-3.3-53.2-11.4-15.6-8.3-28.6-21.9-38-45.6zm84.2 17v18h25v46h30v-46h25v-18zm-55 82v46h46v-46zm64 0v46h110v-46h-46zm128 0v46h30v-46zm-227.4 5.3c-2 .1-3.9.5-5.5 1.3-3.1 1.5-5.6 3.9-7.9 6.6-4.5 5.6-8.3 13.3-10.9 22.6-2.6 9.2-3.7 18.2-3 26.4.3 4.1 1 8 2.6 11.8 1.7 3.8 4.6 7.9 9 10 4.3 2.1 8.5 1.6 11.7.1 3.2-1.4 5.6-3.9 7.9-6.6 4.6-5.6 8.3-13.3 11-22.6 2.6-9.2 3.6-18.2 3-26.4-.4-4-1-8-2.7-11.7-1.7-3.9-4.6-8-8.9-10.1-2.1-1.1-4.3-1.4-6.3-1.4zm.7 21.1c0 .6.2.7.2 1.3.4 4.7-.2 12-2.3 19.3-2.1 7.3-5.2 13.3-7.9 16.5-.3.5-.5.4-.8.8-.1-.6-.2-.7-.3-1.3-.4-4.7.3-12 2.4-19.3 2-7.3 5.2-13.3 7.8-16.5.4-.5.6-.4.9-.8zM265 393v46h110v-46zm128 0v46h94v-46zM64 437c-4.68 0-12.17 2.5-20.09 6.1-9.03 3.4-17.74 8.4-25.57 13.2-.12.1-.22.1-.34.2V478c2.94-2 6.22-4.1 9.77-6.3C40.26 464 56.1 457 64 457c7.9 0 16.34 6 26.37 14 10.03 8 21.63 18 37.63 18 16 0 27.6-10 37.6-18s18.5-14 26.4-14c7.9 0 23.8 7 36.2 14.7 8.3 5 15 9.9 18.8 12.7v-22c-2.8-2-6-4-9.3-6.1C224.1 448 208 439 192 439c-16 0-27.6 10-37.6 18s-18.5 14-26.4 14c-7.9 0-16.4-6-26.4-14-7.14-5.7-15.08-12.4-24.8-15.8-4.5-2.6-8.72-4.2-12.8-4.2zm201 20v30h46v-30zm64 0v30h110v-30zm128 0v30h30v-30z"/>
  </symbol>
  <symbol id="ic-survey" viewBox="0 0 512 512">
    <path fill="currentColor" d="M90.53 23c-18.345 0-36.688 7.002-50.686 21-27.996 27.996-27.994 73.38 0 101.375 21.776 21.776 54.08 26.603 80.53 14.5l53.69 53.688c-21.425 19.696-44 38.257-67.44 55.937l30.126 30.125c18.734-22.545 37.953-44.474 57.844-65.53l169.594 169.593c-51.845 40.444-120.866 53.838-192.813 42.562L173 424.906 72.47 404.47l95.405 88.405 1.97-26c86.593 36.97 177.603 34.61 241.343-11.75l63.062 21.313-21.47-63.594c44.61-63.62 46.408-153.412 9.908-238.875l26.03-1.97-88.406-95.375 20.438 100.53 21.344-1.624c11.278 71.983-2.168 141.017-42.656 192.876l-169.782-169.75c21.075-20.34 42.93-39.665 65.78-57.72l-30.123-30.124c-17.015 24.154-35.673 46.66-55.688 67.813l-53.97-53.97C167.834 98.183 163.032 65.814 141.22 44c-14-13.998-32.343-21-50.69-21zm0 27.03c11.434.002 22.872 4.34 31.595 13.064 17.447 17.447 17.446 45.742 0 63.187-17.446 17.447-45.71 17.447-63.156 0-17.447-17.444-17.448-45.74 0-63.186C67.69 54.37 79.097 50.03 90.53 50.03z"/>
  </symbol>
  <symbol id="ic-timber" viewBox="0 0 512 512">
    <path fill="currentColor" d="M249.28 19.188v.25c-18.114 38.634-45.065 72.36-77.686 102.937l37.72-3.938-51.345 65.032 24.81-7.907-33.624 54.875 16.53 9.843-65.25 92.157 36.095.188-51.686 83.594 63.562-8.126 12 32.094 66.438-25.282L215.5 493.28h52.938l-6.532-68.217 38.188 16.406 10.187-24.783 44.283 20.97 56.406-20.75-37.064-64.094-12.437-2.282 6.78 17.19 7.844 19.905-19.938-7.78-50.906-19.908V395.688l-14.156-8.594-69.375-42-21.595 21.25-18.03 17.75 2.155-25.22 2.125-24.655 18.188 1.56 9.218-9.092 5.19-5.094 6.218 3.75 61.375 37.156v-29.906l12.75 4.97 43.718 17.092-5.092-12.906-6.157-15.656 16.533 3.03 45.468 8.345-34.53-38.94-23.625 14.033-6.688 3.968-5.125-5.874-14.28-16.437.218 1.217-18.406 3.22-5.97-34.313-5.75-33.063 22 25.345 31.188 35.875 43.907-26.03c-24.67-19.543-39.507-33.87-49.658-48.814l.813 12.656 1.97 31-18.75-24.75-34.47-45.437-22.25 46.813-13.844 29.125-3.843-32.032-3.5-28.843 16.532-1.968 16.624-34.97 6.594-13.875 9.28 12.22 25 32.936-.75-11.53-.906-14.28 13.47 4.936L341.81 188l-26.125-35.156-55.843-28.875-8.938 20.218-9.656 21.937-7.72-22.688-7.468-21.875 16.97-5.78 3.718-8.438 4-9.125 8.844 4.593 49.375 25.53 16.467-5.562c-43.42-34.31-64.63-68.886-76.156-103.593z"/>
  </symbol>
  <symbol id="ic-waves" viewBox="0 0 512 512">
    <path fill="currentColor" d="M400.9 104.8c-12 30-41 47.9-99.7 43.9-13.7-1.8-27.6-4.1-41.6-6.7-119.1-37.2-236.24-37.2-236.24 37.2 33.48-37.2 117.74-30.8 225.04-4 116.8 29.2 241.8 41.2 241.8-51.8-18.4 19.3-53.4 28.6-96.6 30.4 10-10.4 12.5-26.7 7.3-49zM147 187.5c-70.75-.3-123.64 16.1-123.64 66.1 33.48-37.2 117.74-34.8 225.04-8 116.8 29.2 241.8 45.2 241.8-47.8-35.4 37.2-130.2 39.6-230.6 8-37.7-11.9-78-18.2-112.6-18.3zm-23.9 69.6c-58.44-.2-99.74 15.6-99.74 70.9 33.48-37.2 122.34-44.3 225.04-18.6 121 30.2 241.8 37.2 241.8-37.2-35.4 37.2-132.1 22.6-230.6 4-48.4-7.5-96.5-19.1-136.5-19.1zm0 74.3c-58.44-.1-99.74 15.8-99.74 71 19.03-21.1 55.52-30.3 102.54-30.8-10.4 10.4-12.9 26.9-7.7 49.4 13.9-34.8 52-51.8 130.3-37.2 122.6 22.8 241.7 37.2 241.7-37.2-35.4 37.2-132.1 18.6-230.6 0-48.4-7.6-96.5-15.1-136.5-15.2z"/>
  </symbol>
</svg>
