<svg xmlns="http://www.w3.org/2000/svg" style="display:none" aria-hidden="true">
<!-- Icons from game-icons.net (Lorc, Delapouite) — CC BY 3.0. See assets/CREDITS.md -->
  <symbol id="ic-balangay" viewBox="0 0 512 512">
    <path fill="currentColor" d="M219.7 24.43l-17.8 2.06 6.8 59.37-36.1-50.35-14.6 10.5 31.9 44.45h37.4zm34.9.18l-6.3 65.85h18.2l6.1-64.15zm83.6 1.58l-37 64.27h20.7l31.9-55.29zm-50.9 6.33l-10.1 57.94h18.4l9.5-54.86zM195 108.5c-5.6 4-12.5 10.3-20.1 18h162.2c-7.6-7.7-14.5-14-20.1-18zm-36.9 36c-18.1 20.5-38.5 46.4-56.8 72.2-16.85 23.8-32.22 47.6-43.25 67.2-5.51 9.8-9.94 18.6-12.89 25.6-2.83 6.7-4.02 12-4.12 13.6.14 0 .58 1.6 2.29 3.3 2.32 2.4 6.32 5.2 11.79 7.4 10.93 4.4 27.71 6.6 50.08-.4 12.8-4 24.6 1.4 36.3 6.3 11.8 5 24.2 10.4 37.5 11.7 15.7 1.7 37.3-6.3 58.3-13.8 10.5-3.8 20.9-7.3 31-8.9 10.2-1.7 20.6-1.4 29.6 4.1 10.5 6.4 22.4 12.8 33.3 15.8 11 3.1 20.2 2.9 28.2-2.5 26.7-17.8 51.3-16.8 69.6-7.3 19.8 10.3 28.4 7.2 34 2.4 5.7-4.8 8.1-15 8-17.3v-.4c0-1.4-1.2-7-4.2-14s-7.4-15.8-12.9-25.6c-11-19.6-26.4-43.4-43.2-67.2-18.3-25.8-38.7-51.7-56.8-72.2zm121 201.3c-2.3 0-4.9.2-7.9.6-7.9 1.3-17.5 4.5-27.8 8.1-20.6 7.4-43.7 17.2-66.2 14.9-17-1.8-31.2-8.3-42.6-13.1-11.5-4.8-19.7-7.1-24-5.7-1.9.6-3.8 1.1-5.6 1.6v99.3c0 4.2 2.5 8.5 9.8 13.6 7.4 5 19.1 9.9 33.5 13.7 14.7 3.9 32.2 6.9 51 8.8 1.1-21.9 5-45.4 12.2-65.2 4.3-11.7 9.6-22.1 16.8-30.1 7.1-8.1 16.7-13.8 27.7-13.8s20.6 5.7 27.7 13.8c7.2 8 12.5 18.4 16.8 30.1 7.2 19.8 11.1 43.3 12.2 65.2 18.8-1.9 36.3-4.9 51-8.8 14.4-3.8 26.1-8.7 33.5-13.7 7.3-5.1 9.8-9.4 9.8-13.6V350c-10.3-1.6-22.3.9-37.6 11.1-13.4 8.9-29 8.7-43 4.9-13.9-3.8-26.9-11.1-37.9-17.8-2.4-1.5-5.5-2.3-9.4-2.4z"/>
  </symbol>
  <symbol id="ic-bangka" viewBox="0 0 512 512">
    <path fill="currentColor" d="M256.778 68.814c-3.52.132-8.176 1.24-12.394 3.12-4.821 2.147-9.08 5.35-10.95 7.697-.904 1.136-1.165 1.924-1.21 2.127l.43.701 16.894 48.273c2.802 6.565 6.66 9.584 11.082 11.086 4.449 1.512 9.782 1.192 14.537-.789 4.755-1.98 8.705-5.526 10.722-9.707 2.007-4.157 2.547-8.97-.207-15.562l-22.326-44.828-.002-.002c-.672-1.302-1.527-1.938-5.14-2.112a16.895 16.895 0 0 0-1.436-.004zm33.266 84.424c-5.14 3.557-10.91 5.906-16.608 6.94l7.354 17.422a278.9 278.9 0 0 0-5.596 1.943c-12.78 4.607-27.478 10.508-37.275 19.506-9.451 8.68-16.245 22.202-21.672 34.002a282.955 282.955 0 0 0-7.293 17.398c-23.803 14.552-45.156 28.97-52.934 68.66 25.558 1.772 40.744 4.549 84.135 2.762-1.585-9.478-3.145-21.732 6.121-34.758a31.449 31.449 0 0 1-10.12-6.449c-15.085-14.282-12.484-39.002 2.68-55.102 3.574-4.153 7.068-9.332 11.257-13.257 5.472-5.026 19.287-11.536 31.205-15.832 2.27-.819 4.433-1.553 6.511-2.243l40.213 95.272c-4.76 2.396-9.901 4.745-15.06 6.494-10.363 3.513-19.712 4.202-26.588.625-6.876-3.576-11.14-6.357-14.723-9.369-8.437 2.841-17.349 2.983-25.219-.078 9.388 11.082 22.136 20.678 32.586 26.148 12.223 6.313 27.186 3.971 39.723-.279 5.848-1.983 11.37-4.463 16.303-6.906l8.29 19.64c3.079-1.935 6.376-3.547 9.764-4.863a60.291 60.291 0 0 1 6.793-2.191l-8.879-21.035 6.274-3.333-8.44-15.896-4.859 2.582-38.814-91.959 6.826-1.766-4.504-17.423-9.054 2.343zm-18.606 75.8a19.672 19.672 0 0 0-1.68.007c-5.832.27-12.386 3.089-17.853 8.893-9.719 10.318-9.844 23.532-3.41 29.625 6.434 6.092 19.586 5.21 29.305-5.108 9.719-10.318 9.844-23.532 3.41-29.625-2.463-2.332-5.91-3.643-9.772-3.793zm218.498 53.95c-34.024 15.84-70.523 27.728-107.85 36.291 4.59 1.964 8.421 6.364 10.007 10.46l22.66 45.497.11.262c1.971 4.673 2.994 9.38 3.183 13.92 9.949-7.106 18.208-18.26 26.97-32.385 7.378 2.756 14.126 5.466 20.29 8.137 3.5-6.443 6.684-13.523 9.484-21.047 7.494-20.142 12.35-42.591 15.146-61.135zM22.188 308.043c-.773 18.548 2.054 38.377 8.436 54.734 4.675 11.984 10.995 21.82 18.795 28.545 11.39-7.493 16.875-15.566 16.517-22.83 31.708 4.607 49.836 8.36 70.985 40.455 35.327-2.006 45.846-20.052 46.226-34.18 27.33 9.146 57.483 22.265 73.346 35.233 26.294-5.579 54.363-17.684 64-48 4.357 1.772 8.401 3.747 12.207 5.83-5.087-12.27-7.485-24.1 1.61-34.562 1.998-2.227 4.257-4.184 6.683-5.918-35.918 5.91-72.047 9.005-106.979 9.752-84.081 1.797-160.672-9.833-211.826-29.059zm349.42 27.215c-3.103-.042-7.688.763-11.994 2.435-4.922 1.911-9.517 4.932-11.912 7.6-2.392 2.664-2.522 3.646-2.063 5.025l11.743 33.547c12.977 8.961 24.557 15.925 40.068 13.795.464-.064.92-.14 1.377-.217 1.73-3.995 2.084-8.623-.514-14.841l-22.384-44.944c-.987-1.685-1.482-2.146-3.086-2.33-.435-.05-.87-.053-1.235-.07z"/>
  </symbol>
  <symbol id="ic-build" viewBox="0 0 512 512">
    <path fill="currentColor" d="M24 87.002v17.996h472V87.002zm127.04 114.084c-4.514-.074-9.04 2.158-9.04 6.914v60.988l18-34V208c.053-4.462-4.448-6.84-8.96-6.914zm209.92 0c-4.512.074-9.013 2.452-8.96 6.914v26.988l18 34V208c0-4.756-4.526-6.988-9.04-6.914zM181.419 233L72.359 439h77.42l54.53-206zm41.508 0l-12.176 46H247v-46zM265 233v126h56.4l-34.279-126zm40.775 0l69.104 254h17.935l-11.447-49.799L412.564 487h52.489L330.582 233zM64 281c-7.62 0-14.45 1.658-18.604 3.734-3.271 1.636-4.106 2.98-4.318 3.266.212.287 1.047 1.63 4.318 3.266C49.55 293.342 56.38 295 64 295c7.62 0 14.45-1.658 18.604-3.734 3.271-1.636 4.106-2.98 4.318-3.266-.212-.287-1.047-1.63-4.318-3.266C78.45 282.658 71.62 281 64 281zm22.922 7c.057.077.078.095.078 0s-.021-.077-.078 0zm-45.844 0c-.057-.077-.078-.094-.078 0 0 .095.021.077.078 0zM448 281c-7.62 0-14.45 1.658-18.604 3.734-3.271 1.636-4.106 2.98-4.318 3.266.212.287 1.047 1.63 4.318 3.266C433.55 293.342 440.38 295 448 295c7.62 0 14.45-1.658 18.604-3.734 3.271-1.636 4.106-2.98 4.318-3.266-.212-.287-1.047-1.63-4.318-3.266C462.45 282.658 455.62 281 448 281zm22.922 7c.057.077.078.095.078 0s-.021-.077-.078 0zm-45.844 0c-.057-.077-.078-.095-.078 0s.021.077.078 0zm-219.094 9l-50.293 190h22.9l15.253-76.838-3.52 76.838H247V297zM41 308.984v150.782l46-86.889v-63.893C80.3 311.632 72.464 313 64 313s-16.3-1.368-23-4.016zm384 0v63.893l46 86.889V308.984c-6.7 2.648-14.536 4.016-23 4.016s-16.3-1.368-23-4.016zm-368.297 19.29c4.418 0 8 7.163 8 16 0 8.836-3.582 16-8 16s-8-7.164-8-16c0-8.837 3.582-16 8-16zM265 377v110h91.225l-29.926-110zM62.83 457l-15.883 30h90.127l7.942-30H62.83z"/>
  </symbol>
  <symbol id="ic-dredge" viewBox="0 0 512 512">
    <path fill="currentColor" d="M102.5 70.4c-.8 0-1.7.1-2.5.22-30.99 5.31-62.08 74.08-72.4 98.98h226.8l11.9-23.9c-12.4-20-35.3-50.36-58.3-49.08-15.1.8-44 33.98-44 33.98s-35.4-60.51-61.5-60.2zm195.1 53.2l-32 64h-79.7l-40.7 95c22 3.3 41.4 14.7 55 31h87.6c4.8-5.8 10.3-10.9 16.4-15.3l28.6-128.7h48.9l16.3-46zM21 187.6v80l13.57 3.5 35.8-83.5zm68.91 0l-37.77 88.1 25.56 6.7 40.6-94.8zm47.99 0L95.28 287l3.7 1c8.42-3.4 17.52-5.6 27.02-6.2l40.3-94.2zm209.3 0l-22.1 99.5c9.6-3.5 20.1-5.5 30.9-5.5 40.3 0 74.6 27.1 85.4 64H491v-80.5l-46.5-15.5-15.5-62h-34.7zm17.8 14h46l12.5 50h-71l10.8-43.2zm-233 98c-39.32 0-71 31.7-71 71s31.68 71 71 71c39.3 0 71-31.7 71-71s-31.7-71-71-71zm224 0c-39.3 0-71 31.7-71 71s31.7 71 71 71 71-31.7 71-71-31.7-71-71-71zm-320.62 32l-12.4 62h23.05c-1.97-7.3-3.03-15.1-3.03-23 0-14 3.25-27.2 9.04-39zm176.62 0c5.7 11.8 9 25 9 39 0 7.9-1.1 15.7-3 23h52c-1.9-7.3-3-15.1-3-23 0-14 3.3-27.2 9-39zm-80 7a32 32 0 0 1 32 32 32 32 0 0 1-32 32 32 32 0 0 1-32-32 32 32 0 0 1 32-32zm224 0a32 32 0 0 1 32 32 32 32 0 0 1-32 32 32 32 0 0 1-32-32 32 32 0 0 1 32-32zm88.7 25c.2 2.3.3 4.6.3 7 0 10.7-1.9 20.9-5.4 30.5l51.4-20.6v-16.9z"/>
  </symbol>
  <symbol id="ic-ginto" viewBox="0 0 512 512">
    <path fill="currentColor" d="M313.824 61.625l-67.865 118.24L176 96l-4.08 129.77L56.162 105.264 112 272l-81.986-63.115 19.865 113.77L18 311.724V391h7.514l16-48h40l16-48h40l16-48h40l16-48h92.972l16 48h40l16 48h40l16 48h40l16 48H494V241.285l-77.783 39.547L480 144l-125.797 83.758L400 128l-74.926 66.87zM222.486 217l-10 30h87.028l-10-30zm-56 48l-10 30h87.028l-10-30zm86 0L256 275.54l3.514-10.54zm26 0l-10 30h87.028l-10-30zm-168 48l-10 30h87.028l-10-30zm86 0L200 323.54l3.514-10.54zm26 0l-10 30h87.028l-10-30zm86 0L312 323.54l3.514-10.54zm26 0l-10 30h87.028l-10-30zm-280 48l-10 30h87.028l-10-30zm86 0L144 371.54l3.514-10.54zm26 0l-10 30h87.028l-10-30zm86 0L256 371.54l3.514-10.54zm26 0l-10 30h87.028l-10-30zm86 0L368 371.54l3.514-10.54zm26 0l-10 30h87.028l-10-30zM18 409v30h57.514l-10-30zm66.486 0L88 419.54 91.514 409zm26 0l-10 30h87.028l-10-30zm86 0L200 419.54l3.514-10.54zm26 0l-10 30h87.028l-10-30zm86 0L312 419.54l3.514-10.54zm26 0l-10 30h87.028l-10-30zm86 0L424 419.54l3.514-10.54zm26 0l-10 30H494v-30zm-418 48L32 467.54 35.514 457zm26 0l-10 30h87.028l-10-30zm86 0L144 467.54l3.514-10.54zm26 0l-10 30h87.028l-10-30zm86 0L256 467.54l3.514-10.54zm26 0l-10 30h87.028l-10-30zm86 0l3.344 10.033.342-.01L371.514 457zm26 0l-10 30h87.028l-10-30zm86 0l2.287 6.863 2.477-.07 2.264-6.793z"/>
  </symbol>
  <symbol id="ic-grain" viewBox="0 0 512 512">
    <path fill="currentColor" d="M259.9 22.6c-8.4 13.1-16.5 26.3-20.5 39.2 5.3 4.32 10 8.63 14 13.4 5.9-3.56 12.1-6.61 17.7-9.1-.6-14.5-5.6-28.6-11.2-43.5zm-48.8 42.6c-.6 5.7 0 12.9 2.2 19.8 9.6 4.87 17.2 10.27 24.7 16.6 2.6-3.2 4.1-7.3 2.4-13.3-7.8-10.13-18.3-17.9-29.3-23.1zM45.6 70.8c1.2 15.6 2.8 30.9 7.3 43.6 6.93 0 12.96 1.1 19.2 2.3 2.21-6.2 5.6-12.4 8.6-17.9-9.2-11.3-21.6-19.5-35.1-28zm305 .5c-10.2 11.9-20 23.9-25.8 36 4.6 5.1 8.8 9.7 12 15.2 6.3-2.6 12.8-4.8 18.7-6.5 1.5-14.5-1.4-29.2-4.9-44.7zm-53.3 6.6c-12.8 2.1-24 5.79-35 13.3-3.4 5.4-3 9.8-1.3 13.7 9-3.8 19.3-7.28 28.2-8.5 4.3-5.9 6.9-12.9 8.1-18.5zm-176 1.4c1.3 15.6 2.7 30.9 7.3 43.6 6.8.3 13.2.9 19.3 2.3 2.5-6.4 5.5-12.6 8.6-18-9.2-11.2-21.7-19.5-35.2-27.9zM468.8 85c-13.2 8.5-26 17.1-35.1 27.1 2.9 6.2 5.6 11.9 7.1 18 7-.8 13.8-1.1 19.9-.9 5.6-13.4 7-28.3 8.1-44.2zM104.6 96.8c-8.21 7.1-13.83 19.1-15.6 27.1.1 2.4.7 4.3 1.4 5.9 6.22-3.3 13.4-5.2 19.3-6-2.6-8.9-4.1-18-5.1-27zm79.9 4c-10.2 10-17.3 23.1-19.8 31.6.5 6.6 3.5 9.9 7.1 12 4.9-8.6 11-17.5 17.4-24-.2-7.2-2.2-14.4-4.7-19.6zm21.4 1c-.3 2.7-.2 5 .3 7.5 7.1 5.9 12.9 14.3 15.4 21.7 3.7 2.6 7.3 5.3 10.5 8 3-3.2 4.9-7.5 3.1-14.1-7.9-10.1-18.4-17.7-29.3-23.1zm200.7 1.6c-2.8 4.9-5.4 11.7-6.2 18.9 6.6 8.5 11.6 16.4 15.5 25.4 3.6-1.8 6.6-4.8 7.7-10.9-1.1-6.5-4.1-13.2-7-18.6-2.9-5.5-6.6-10.8-10-14.8zm-114.5 11.1c-13.7 2.9-26.1 6.8-34.9 13.3-2.6 4.9-3.4 10.8-.9 15.1 8.5-3.6 18.1-6.7 26.4-8.2 4.4-5.9 7.9-13.5 9.4-20.2zm18.2 3.7c-1 5.2-3 10.3-5.5 15.3 4.9 4.3 9.3 8.5 13.2 13.1 3-2.8 5-6.7 4.3-12.8-2.7-5.3-7.7-11.2-12-15.6zm56.8 14c-8.1 1.1-15.9 3.8-23.5 7.3-4.2 5-4.5 9.5-3.4 13.6 5.5-1.7 11-2.6 16.2-3.6 2.3-2.3 4.6-3.9 7.3-5.9.8-3.9 1.9-7.8 3.4-11.4zm-334.8 2c3 4.8 7.8 10.3 13.7 14.5 10.58-2 19.99-2.1 29.8-1.7.1-4-1.1-8.2-6.1-12-11.37-3.1-25.19-3.3-37.4-.8zm170.2-1.1c-9 8.9-16.6 21.4-19.9 31.8 1 5.5 3.9 10.6 8.4 12.5 4.7-7.9 10.3-16.3 16.1-22.4-.2-7.6-1.8-15.6-4.6-21.9zm184.1 1.4c-3.5 7.3-5.8 14.1-6.4 20.9 6.3 8 10.6 15.5 14.6 23.9 5.4-3.3 7.9-6.9 8.8-11.4-2.9-12.6-9.1-24-17-33.4zm-278.5 8.2c2.9 4.8 7.7 10.3 13.6 14.5 10.6-1.8 20-2.5 29.8-1.7.2-4.1-1.2-8.3-6.1-12.1-11.4-3-25-3.3-37.3-.7zm332.9 6.8c-5.3 3.8-5.5 6.6-5.7 10.8 2.7 0 5.6.2 8.4.4 7.1.7 14.2 1.7 20.8 3.6 6.4-3.6 11.8-8.8 15.2-13.4-9.7-3-27.8-5.3-38.7-1.4zm-154 3.1c-12.5 2.3-26 6.2-35 13.5-5 8.2-1.1 15.9 4 20 6.8.3 15.9-5.5 22.6-14.6 4.4-6 7.2-13.1 8.4-18.9zm17.6 6c-1.3 5.3-3.5 10.5-6.3 15.5 3.1 2.9 6.1 5.8 8.7 8.8 3.4-2.9 5.9-6.8 5.1-13.6-1.9-3.7-4.7-7.4-7.5-10.7zm-254.3 8c3.1 5 8.1 10.7 14.3 14.9l.9.6c10.08-1.8 18.95-2 28.2-1.6.4-4.4-.6-9-6-13.2-11.43-3-25.15-3.2-37.4-.7zm171.1 0c-10.1 6.6-17.7 26.1-19.8 31.7 1.2 9.3 7.2 13.5 15.3 13.7 11.5-12.3 10.9-31.2 4.5-45.4zm-4.5 45.4l-.1.1c.1 0 .1-.1.1-.1zM366 167.1c-2.9 5.1-5.6 12.1-6.3 19.6-1.2 11.3 1.7 21.7 7 26 8.7-1.1 14.5-3.2 16.3-12.2-1.1-6.4-4.1-13.1-7-18.6-2.9-5.5-6.6-10.8-10-14.8zm-21.5 3.4c-3.6.7-9.8 4-11.1 4.6-3.1 4.6-4.9 10.3-2.9 14.9 3.9-1 7.4-2 11-2.6.5-5.8 1.6-12 3-16.9zM126 175.1c4.6 6.5 9.8 11.6 15.3 15.5 9.7-1.5 20-1.9 28.2-1.7.3-4.3-.7-9-6.1-13.2-11.4-3-25.1-3.1-37.4-.6zm296.5 4.4c-5.4 4-7.2 8.2-7.2 13.4 9.2.3 19.2 1.5 27.3 3.6 6.5-3.8 12.9-9 17.1-14.5-10.6-5-27.8-4.9-37.2-2.5zm-134.9 9.2c-3.7 4-7.8 7.5-12.4 10.2 1.9 8.1 7.4 20.9 14.4 24.1-1-.4 3.7-.2 7.1-3 11.6-12.9 1.4-20.8-9.1-31.3zM69.2 200.1c3.1 5 8.1 10.7 14.3 14.9 9.5 6.3 19.9 8.7 26.3 6.1-1 .4 2.4-2.7 2.8-7.1.4-4.4-.7-9-6.1-13.2-11.37-3-25.07-3.2-37.3-.7zm173.9-.7c-.3 1.5-.6 2.9-1 4.4l1.1 137.1c6-.1 12-.2 18-.1l-1-127.9c-1-2.9-1.8-5.9-2.4-8.8-5.4.2-11.2-1.8-14.7-4.7zm99.7 6.2c-6.7.9-15.9 4.6-19.8 6.7-6.3 8.3-3.6 15.2 1.1 20.5 10-.5 20.1-6.3 25.3-12.3-3.2-4.4-5.3-9.6-6.6-14.9zm-197.9 3c3.1 5 8.1 10.7 14.3 14.9 9.4 6.3 20 8.7 26.3 6.1 3.2-8.3 4-14.5-3.2-20.3-11.4-3-25.2-3.2-37.4-.7zm249.8 16.1c0 4.4 3.1 7.8 2.1 7.3 6.1 3.1 16.8 1.7 26.8-3.9 6.5-3.6 12-8.8 15.5-13.5-14.4-3.2-43.6-9.5-44.4 10.1zm-264.8-5.1c-.6 3.5-1.7 6.8-3.5 9.7 20.3 36.9 37.7 77.7 51.6 117.6 5.8-1 11.9-1.8 18.2-2.6-11.8-34.7-26.4-70.1-43.3-103.5-8.8-5.6-17.9-13.4-23-21.2zm75.7 9.1c-.8 4-2.3 7.8-4.7 10.9 8.5 33.8 15 68.2 19.5 102.4 6-.5 12-.8 18.1-1-4.8-36.8-11.9-74-21.3-110.5-3.9.4-7.8-.4-11.6-1.8zM377 230c-4.2 1.2-8.4 1.7-12.5 1-19.9 35.2-38 74.2-51 113.8 6.3 1 12.4 2.1 18.2 3.4 12.4-37.4 29.5-74.6 48.5-108.2-1.7-3-2.7-6.4-3.2-10zm-72.5 6.6c-3.8 2.5-8 4.2-12.2 4.5-8.3 32.2-15.6 66-21.3 100 6.1.2 12.2.5 18.1 1 5.5-33 12.7-66.1 20.7-97.5-2.2-2.2-3.9-5-5.3-8zM169.9 366.9c-.4 11.7 4.7 24.4 16.5 36.2 48-9.1 97.8-10 145.1 3.2 12.5-10 17-21.1 17.8-34.6-56.8-15.2-121.5-16.3-179.4-4.8zm84.4 47.3c-9 0-18 .5-27 1.3 1.1 20.1 1.5 40 1.3 59.2-2.4-17.8-6.2-37.4-11.2-58.2-6 .7-12 1.5-18 2.5 5.6 22.5 9.7 43.6 12 62.1l17.2-2.1c-.1 2.8-.1 5.6-.2 8.4l18 .4c.2-7 .3-14.1.3-21.2l12.7-.2c-.1 7.8.1 15.5.4 23l18-.8c-1-23-.2-47.7 2-73.4-8.5-.7-17-1-25.5-1zm42.1 2.9c-3 21.6-3.9 42.9-2.1 63.3l18-1.6c-1.6-18.5-.8-38.2 2-58.4-5.9-1.3-11.9-2.4-17.9-3.3z"/>
  </symbol>
  <symbol id="ic-hukay" viewBox="0 0 512 512">
    <path fill="currentColor" d="M443.805 69.348a3.472 3.472 0 0 0-.487.012c-12.998 1.235-31.783 19.242-24.832 30.295 3.356 5.336 13.305-.725 18.375-4.47 6.51-4.808 13.783-12.883 12.417-20.858-.41-2.39-3.026-4.878-5.472-4.98zm-57.483 5.647c-8.19.032-26.684 20.257-25 33.406.65 5.08 7.206 9.603 12.31 9.195 7.353-.59 12.785-8.993 15.395-15.89 3.123-8.252 6.932-23.048-1.213-26.44a3.82 3.82 0 0 0-1.492-.27zm2.477 56.144a57.016 57.016 0 0 0-12.344 1.283c-11.92 2.58-22.49 8.992-27.15 16.5-.004.008-.008-.008-.013-.012.02.03.06.12.176.61.257 1.092 1.213 3.267 2.598 5.862 2.77 5.19 8.083 12.27 6.315 22.35-2.377 13.553-12.455 21.748-19.912 28.853-.475.453-.902.88-1.353 1.318.2 1.22.36 2.456.485 3.707.876 8.88.196 18.3-3.415 26.436.867.716 1.735 1.27 2.56 1.588 6.51 2.502 18.693-1.57 27.11-7.795 5.37-3.972 9.217-10.368 12.973-18.44 3.756-8.073 7.244-17.554 13.272-26.32 2.182-3.176 4.618-5.91 7.054-8.39-2.554-7.28-3.338-15.11-1.02-22.623 2.335-7.574 7.147-14.296 13.2-19.853-.148-.11-.296-.23-.445-.32-5.107-3.06-12.35-4.71-20.09-4.754zm50.073 9.36a9.34 9.34 0 0 0-1.268.077c-2.357.28-5.852 1.578-9.335 3.766-6.967 4.376-13.556 12.553-14.936 17.03-.77 2.498-.33 9.123 1.82 13.91 1.78 3.962 3.69 5.435 4.83 5.944.358-.657.826-1.468 1.366-3.304 1.39-4.735 2.083-11.754 5.396-18.637 3.4-7.062 8.74-12.182 11.736-16.395.878-1.234.954-1.58 1.315-2.305a6.222 6.222 0 0 0-.924-.084zm-153.338 14.913l-58.824 44.12c4.327 11.118 10.304 31.646 10.304 31.646l-9.834 13.342-11.237-15.45-8.927-27.895h-12.682l-29.252 43.877 5.912 28.966-36.85-32.242-92.828 75.52 10.75 23.457 50.147-6.326 53.844-31.335 50.834 8.187 8.366 1.236-4.215-3.51 1.274-5.413c2.75-11.698 11.897-22.636 24.286-35.38 12.388-12.743 28.288-26.233 45.093-37.98a323.56 323.56 0 0 1 3.48-2.398c1.75-8.443 6.424-16.227 11.29-23.008 3.573-4.98 7.436-9.29 11.496-12.556 2.03-1.632 4.086-3.034 6.636-4.066 1.275-.516 2.804-1.003 4.523-1.15a11.955 11.955 0 0 1 5.664.897c1.68.7 3.09 1.605 4.29 2.643.523-.515 1.1-1.06 1.6-1.564l-45.14-33.62zm32.867 51.695c-2.15 1.888-4.826 4.748-7.314 8.215-5.457 7.604-8.88 17.797-8.47 21.383.04-.004.265.43.935.904.947.67 2.482 1.108 2.832 1.12 3.006.098 9.538-4.113 11.176-7.58 1.623-3.435 2.762-11.358 2.13-17.77a30.344 30.344 0 0 0-1.288-6.272zm-15.785 29.598c-.016.002-.01.06.024.25-.013-.074-.014-.17-.023-.25zm95.99-3.38c1.572 7.582 1.293 16.09.032 24.747-2.49 17.077-9.143 36.21-17.658 54.863a337.355 337.355 0 0 1-11.28 22.405l20.52 3.032 91.26 22.767-8.523-55.903-21.483-36.92-23.43 7.81-16.154 28.796 9.13-43.545 21.145-9.063-2.758-4.738-40.803-14.252zm-17.293 6.812c-1.985 2.21-4.208 4.292-6.752 6.173-11.307 8.364-27.884 16.426-44.275 10.124a32.986 32.986 0 0 1-7.887-4.365c-4.762 3.095-10.425 4.853-16.607 4.65-4.77-.157-8.94-1.797-12.645-4.42-1.752-1.24-3.452-2.775-4.875-4.637-14.494 10.46-28.23 22.263-38.765 33.1-8.307 8.545-14.397 16.95-17.475 22.306l23.22 19.34c6.954-6.846 16.983-15.512 27.226-23.692 6.957-5.558 13.793-10.65 19.657-14.303 2.93-1.827 5.555-3.305 8.357-4.373 1.4-.534 2.837-1.008 4.82-1.168 1.984-.16 5.106.007 7.963 2.387s3.588 5.42 3.79 7.4c.2 1.98-.008 3.48-.28 4.954-.544 2.95-1.522 5.796-2.79 9.01-2.533 6.427-6.304 14.07-10.513 21.92-6.194 11.55-12.904 22.982-18.38 31.058l23.222 19.342c4.713-3.996 11.878-11.504 18.78-21.22 9.503-13.375 19.466-30.66 27.5-48.264 8.037-17.603 14.128-35.618 16.22-49.983.88-6.043.977-11.16.488-15.34zM302.88 305.75a292.33 292.33 0 0 0-9.167 7.032c-12.01 9.593-24.005 20.703-28.615 25.584.282 4.886 1.298 8.09 2.254 9.133 1.01 1.1 3.36 2.304 10.28 1.31 3.964-5.413 12.724-19.223 19.99-32.772a292.287 292.287 0 0 0 5.257-10.287zm-45.734 41.66l-78.2 93.886c6.896.442 13.966.79 21.19 1.052l70.038-84.085-13.028-10.852zm-32.03 10.333c-15.156.146-29.902.68-44.052 1.568l-12.21 15.84-4.856-14.565c-21.108 1.803-40.613 4.395-57.873 7.61l-1.336 47.68-11.593-45.073a350.03 350.03 0 0 0-7.463 1.72c-18.672 4.534-33.576 9.968-43.076 15.422-9.5 5.454-12.14 10.133-12.14 12.233 0 2.1 2.64 6.778 12.14 12.232 9.5 5.453 24.404 10.887 43.076 15.42 20 4.857 44.368 8.75 71.565 11.33l67.815-81.417zm125.075 8.602c-9.647 13.38-18.383 23.522-28.817 28.09l-5.094 2.23-32.274-26.883-60.647 72.81c3.367.04 6.75.063 10.158.063 57.95 0 110.438-5.756 147.783-14.824 18.673-4.533 33.577-9.967 43.077-15.42 9.5-5.455 12.14-10.133 12.14-12.233 0-2.1-2.64-6.78-12.14-12.233-9.5-5.454-24.404-10.888-43.076-15.422-1.168-.283-2.395-.555-3.593-.832l-14.178 50.64-1.727-53.964a481.776 481.776 0 0 0-11.612-2.02z"/>
  </symbol>
  <symbol id="ic-kawayan" viewBox="0 0 512 512">
    <path fill="currentColor" d="M51.72 25c3.76 42 3.72 84 0 126h44.22c-4.56-41.6-3.68-83.68.28-126h-44.5zm181.68 0c2.6 54.1 5.5 108.6.4 164.7h44.3c-5-54.5-3.7-109.52.3-164.7h-45zm113.2 0c4.6 31.51 3.6 62.88-.4 94h44.1c-2.4-31.33-2.4-62.67 0-94h-43.7zm116.5 36.46s-41.4 7.81-53.5 23.86c-3.2 4.61-5.9 12.32-3 17.18 3.1 4.8 10.7 5 15.8 3.3 18.3-6 40.7-44.34 40.7-44.34zM173 106.9s12 42.7 28.1 53.1c4.6 3.1 12.2 4.6 16.3.7 4.1-3.9 3.4-12 1.4-17.2-7.8-18.7-45.8-36.6-45.8-36.6zm261.4 6.9c-4.6.1-8.9.6-12.5 1.8-6.3 2.2-14.1 8.1-13.8 14.7.1 6.6 8.2 12 14.8 13.8 23.6 6.2 71.5-16.6 71.5-16.6s-35.2-14-60-13.7zM346.2 137c6.2 47.7 7.1 95.1.2 142h43.8c-4-47.4-3.5-94.8.2-142h-44.2zm67.4 18.9c-2.2.1-4.3.8-5.9 2.3-4.1 3.9-3.4 12-1.4 17.2 7.8 18.7 45.8 36.6 45.8 36.6s-12-42.7-28.1-53.1c-2.6-1.7-6.1-3-9.5-3h-.9zm-255 12.3c-13.1.2-23.2 1.3-23.2 1.3s40.3 34.6 64.7 34.8c6.7-.1 16-3.1 17.8-9.4 2.1-6.3-3.8-14.1-9.5-17.9-10.1-6.8-28.4-8.6-44.1-8.8h-5.7zm-106.59.8c4.41 42.1 3.92 84.1-.2 126h44.42c-3.9-42.3-4.92-84.4-.31-126H52.01zm181.49 32c3.3 52.1 3.5 104.7 0 158h44.6c-5-53.5-3.7-106 .3-158h-44.9zm-76.4 22.6s-38 17.9-45.8 36.6c-2 5.2-2.7 13.3 1.4 17.2 4.1 3.9 11.7 2.4 16.3-.7 16.1-10.4 28.1-53.1 28.1-53.1zm-25.6 72.1c-6.7.2-15 3.1-16.9 9-2.1 6.2 3.6 14.1 9.1 18 19.9 14 72.8 9.4 72.8 9.4s-39.3-35.6-63.7-36.4h-1.3zm214.2 1.3c2.8 36.5 3.6 73.2.2 110h43.9c-4.6-38-1.7-74.3.6-110h-44.7zM51.61 313c3.96 58.2 2.72 116.2-.2 174h45.21c-2.49-57.7-4.56-115.7-.28-174H51.61zM121 337.8c-3.8.1-7.5 1.3-9.4 4.3-2.9 4.8-.2 12.6 3 17.2 12.1 16 53.5 23.8 53.5 23.8s-22.4-38.3-40.7-44.3c-1.9-.6-4.2-1-6.4-1zm359.7 19.4s-52.9 5.1-69.9 22.5c-4.6 4.8-8.9 13.7-5.6 19.4 3.1 5.8 12.8 6.9 19.5 5.5 23.8-5.2 56-47.4 56-47.4zM234 377c3.6 36.7.4 73.9-.7 110h45.2c-1.7-35.8-5.7-72.4-.8-110H234zm182 45c-5.2 0-11.1 2.3-12.7 6.9-1.9 5.3 2.4 12.2 6.6 16 15.4 13 57.4 11.6 57.4 11.6s-30.1-32.5-49.2-34.4c-.7-.1-1.4-.1-2.1-.1zm-70 3c2.1 20.3 3.3 41 .6 62h42.8c-2.8-21.1-1.4-41.8.7-62H346z"/>
  </symbol>
  <symbol id="ic-look" viewBox="0 0 512 512">
    <path fill="currentColor" d="M80.87 28.32c-10.027.162-20.065 3.47-29.706 11.055C79.26 31.458 116.008 60.67 128.582 94.5c-33.088 2.865-77.492 21.193-92.373 60.79 45.182-35.396 77.437-49.508 97.192-28.644-20.36 20.232-37.693 49.855-34.722 77.06 8.497-19.502 30.642-47.206 53.763-56.956-.017.246-.03.493-.037.74 0 9.698 7.86 17.56 17.56 17.56 5.507-.01 10.692-2.603 14.003-7.005 43.084 62.306 46.703 103.963 46.99 171.13 1.22 3.765 3.31 13.657 8.712 13.323 2.138-.15 7.886-4.198 9.24-14.906-.658-72.08-6.662-120.87-59.648-192.89.088-.437.17-.88.244-1.335 12.77-25.514 63.138-12.534 85.207-7.342-19.952-24.276-63.064-33.383-91.26-30.154 6.987-23.99 41.58-35.786 79.522-39.88-35.283-14.532-83.623-2.6-108.498 18.582-18.92-23.63-46.22-46.692-73.61-46.252zM316.444 88.3c-14.417-.27-30.606 5.297-47.838 19.68 55.587-9.758 66.225 13.936 65.26 41.247-27.864-3.965-65.48 2.288-83.724 24.488 15.247-3.588 43.993-5.876 64.527 1.6-2.136 2.976-3.288 6.547-3.293 10.21 0 9.697 7.86 17.558 17.557 17.56 1.158-.007 2.312-.127 3.447-.36-29.184 40.13-43.586 77.41-49.65 109.765 5.913.638 11.845 1.472 17.78 2.49 6.267-33.1 22.157-72.1 56.822-115.246 3.327 3.807 8.134 5.994 13.19 6.002 8.54-.01 15.833-6.162 17.283-14.578 24.362 2.404 52.773 19.613 66.91 34.192-6.48-25.342-31.1-46.236-56.117-58.325 20.007-20.112 64.557-27.84 85.123-26.85-48.212-22.24-87.34-20.276-110.062-9.238-9.94-21.647-30.544-42.133-57.213-42.636zM18 327v18h100.234c14.542-6.786 29.8-12.894 45.434-18zm330.69 0c15.736 5.106 31.102 11.213 45.736 18H494v-18zm-81.858 2.29c-1.966 17.012-11.84 30.178-25.898 31.165-17.093-1.086-24.48-13.605-27.6-27.437-33.38 5.94-67.274 18.015-97.31 33.033-36.807 18.405-67.758 41.478-84.942 61.233 4.887 1.483 10.322 3.123 17 4.844 16.234 4.183 36.103 7.82 47.176 6.904 8.815-.73 18.05-5.583 28.39-11.27 10.34-5.687 21.82-12.22 35.834-13.026 19-1.092 36.012 5.71 51.84 12.04 15.828 6.332 30.557 12.207 44.69 12.226 8.875.012 18.36-3.293 28.83-7.22 10.47-3.925 21.902-8.468 34.943-8.778 30.896-.735 56.652 15.618 80.36 16 14.596.235 38.53-3.61 58.222-7.625 8.712-1.776 16.05-3.47 22.18-4.91-16.61-19.392-47.196-42.19-83.774-60.38-39.91-19.846-86.81-34.618-129.94-36.798zm-97.768 109.66c-17.693.86-35.45 8.61-51.22 16.005-9.012 4.226-17.343 8.447-24.168 11.486C86.85 469.48 81.11 471 80 471c-25.66 0-48.943-12.707-62-21.492v21.472C33.352 479.837 55.207 489 80 489c7.268 0 13.51-2.78 20.998-6.115 7.488-3.335 15.8-7.56 24.488-11.633 17.376-8.147 36.382-15.234 49.875-14.275 8.73.62 17.46 6.266 27.45 13.51 9.993 7.246 21.062 16.013 35.75 18.396 21.05 3.416 40.977-2.01 59.72-7.215 18.745-5.204 36.403-10.194 52.91-8.705 6 .54 11.362 3.603 18.867 7.564C377.562 484.487 387.252 489 400 489c14.94 0 38.64-4.13 59.537-8.164 15.083-2.91 28.2-5.772 34.463-7.166v-18.39l-.012-.05c0-.002-17.313 3.968-37.863 7.934C435.575 467.13 411.277 471 400 471c-8.694 0-14.606-2.73-21.54-6.39-6.936-3.66-14.852-8.6-25.65-9.573-21.053-1.898-40.784 4.134-59.343 9.287-18.56 5.153-35.852 9.418-52.026 6.793-8.856-1.437-17.89-7.824-28.063-15.2-10.174-7.378-21.676-15.823-36.738-16.894-2.6-.177-5.16-.19-7.576-.074z"/>
  </symbol>
  <symbol id="ic-mouth" viewBox="0 0 512 512">
    <path fill="currentColor" d="M136 40.938l-88 44V184h176V84.937l-88-44zM480 48l-240 80v32l240 64V48zM64 96h31.406l.313 64H64V96zm47.406 0h48l.313 64h-48l-.314-64zm64 0H208v64h-32.28l-.314-64zM79.312 201L19.094 487h233.812l-.094-.438.125.094c7.327-10.582 26.22-22.905 46.032-28.22 10.19 18.728 29.766 30.564 53.03 30.564h4.125l2.688-3.125c11.347-13.123 19.005-24.272 35.843-27.906C404.94 477.692 426.263 489 448 489h5.25l2.594-4.563c8.78-15.503 11.158-17.993 28.844-28.75l-9.375-15.375c-16.44 10-24.038 17.37-32.063 30.344-15.508-1.633-29.613-11.073-34.75-25.656l-2.344-6.625-7 .656c-26.106 2.45-39.755 18.452-51.062 31.72-17.555-1.233-29.83-10.616-35.688-25.97l-2.656-6.967-7.375 1.343c-20.77 3.78-40.482 13.32-54.094 25.813L192.688 201H79.313zM87 256h18v48H87v-48zm80 128h18v48h-18v-48z"/>
  </symbol>
  <symbol id="ic-palm" viewBox="0 0 512 512">
    <path fill="currentColor" d="M179.125 20.625c-28.052.12-54.046 5.813-66.72 9.78 0 0 114.968 19.51 124.532 98.876C149.573 3.32 54.28 155.657 54.28 155.657c19.868-5.212 76.76-20.682 114.75-14.156 25.992 4.465 51.33 28.03 50.236 27.733-61.943 15.24-160.35 290.92-143.64 313.308 14.9 17.12 29.816 11.28 44.718 2.595 7.376-58.425 64.938-314.765 135.375-294.072.01.003.02-.003.03 0 5.93 2.03 11.54 5.59 11.844 11.03.58 10.363-6.11 27.3-4.53 39.063 3.662 27.296 9.007 36.79 16.78 46.313 18.564-10.435 36.326-48.057 40-67.564 16.634 7.284 43.373 24.155 65.187 86.813 11.404-58.716-5.042-105.03-59.03-125.595 23.38-10.105 125.142 41.03 137.563 69.53C475.648 199.264 390.167 136.378 319 139.72c13.644-3.56 28.638.6 42.906-9.907 19.146-14.098 41.474-26.24 62.28-39.282-69.972-30.435-134.545-15.407-139.092 16.095-3.573-69.916-57.83-86.204-105.97-86z"/>
  </symbol>
  <symbol id="ic-river" viewBox="0 0 512 512">
    <path fill="currentColor" d="M357.676 20.387c-2.612.01-5.23.105-7.856.29-63.314 4.438-131.13 58.006-142.117 130.253L494 162.992V89.656c-8.09-7.792-16.415-15.25-24.953-22.177-34.59-28.067-72.195-47.234-111.37-47.093zM125.55 40.812C89.363 40.94 51.743 55.725 18 86.825v81.3l172.107-18.815-.363-.054c3.872-26.688 14.327-50.957 29.162-71.742-26.973-24.13-59.536-36.82-93.357-36.7zm110.263 129.514c-24.49-.258-109.87 12.136-109.602 27.078.46 25.55 104.433 51.553 94.726 53.018C122.553 265.27 67.968 265.427 35.34 295.2c-38.914 35.507 214.983 80.92 184.422 89.687-57.204 16.412-107.82 36.256-109.002 88.414-.17 7.52.8 14.385 2.705 20.7h54.945c-15.423-20.635-24.05-40.664-14.6-45.912 10.413 15.107 22.492 31.126 36.174 45.912h64.286c-19.474-9.912-51.732-29.408-50.594-49.424 1.6-28.17 66.37-47.758 69.883-47.758 0 0-48.786 26.384-49.867 49.866-.767 16.68 22.317 36.985 35.69 47.316h51.976c-16.454-12.325-26.478-24.92-20.426-31.885 15.54 11.066 33.115 22.438 51.826 31.885h106.717c-56.74-15.988-102.683-32.67-115.225-53.127-10.196-16.63 72.362-27.836 60.408-78.902-5.79-24.738-58.24-41.094-203.222-62.626-25.368-3.768 134.358-19.456 129.818-57.11-2.65-21.98-103.288-26.85-114.58-36.933-4.746-4.237 5.863-29.56 29.137-34.974zM91.425 308.056c33.376-.145 84.385 22.424 122.8 36.747l-1.79 11.67c-28.404-10.606-103.905-37.464-127.442-48.077 2.06-.22 4.207-.332 6.432-.34zm270.234 53.803c.103-.006.1.077-.015.253 3.9 12.183-21.487 44.05-61.807 42.842 14.153-7.15 59.732-43.004 61.822-43.096z"/>
  </symbol>
  <symbol id="ic-salt" viewBox="0 0 512 512">
    <path fill="currentColor" d="M279.406 20c-22.566.257-41.433 6.548-53.187 18.844l-.626-.375-1.78 3.093c-1.508 1.848-2.89 3.787-4.095 5.874-1.197 2.07-2.19 4.228-3.032 6.438l-36.125 62.563-4.688 8.124-5.313 9.188c-.077.134-.142.272-.218.406L62.064 321.72c-12.087 20.93-7.338 47.287 7.248 71.717 14.587 24.43 39.327 48.134 71.032 66.438 31.704 18.304 64.58 27.864 93.03 28.28 28.452.42 53.666-8.63 65.75-29.56l108.532-187.97 4.625-8 4.626-8.063 36.53-63.25c1.662-1.983 3.163-4.11 4.47-6.375 1.29-2.232 2.338-4.543 3.22-6.937l.812-1.375-.282-.156c12.272-37.432-23.027-92.36-84-127.564-33.91-19.578-69.14-29.237-98.25-28.906zm32.97 19.313c4.743.044 10.416 1.66 15.874 4.812 10.916 6.302 16.874 16.395 13.313 22.563-3.562 6.167-15.303 6.052-26.22-.25-10.916-6.303-16.873-16.395-13.312-22.563 1.782-3.084 5.6-4.607 10.345-4.563zm-57.095 7.593c4.745.044 10.387 1.662 15.845 4.813 10.916 6.3 16.905 16.393 13.344 22.56-3.563 6.17-15.304 6.054-26.22-.25-10.916-6.3-16.874-16.393-13.313-22.56 1.78-3.085 5.6-4.608 10.344-4.564zm133 36.22c4.745.043 10.387 1.66 15.845 4.81 10.916 6.304 16.905 16.396 13.344 22.564-3.563 6.168-15.304 6.084-26.22-.22-10.916-6.3-16.874-16.425-13.313-22.593 1.78-3.083 5.6-4.606 10.344-4.562zm-171.717 8.343c3.616 12.197 10.345 24.915 19.75 37.374L195.5 198.438c-.536-.846-1.09-1.69-1.594-2.532-12.515-20.96-14.71-39.73-7.156-52.812l29.813-51.625zM335.125 93c4.744.044 10.417 1.66 15.875 4.813 10.916 6.302 16.874 16.425 13.313 22.593-3.562 6.168-15.303 6.053-26.22-.25-10.916-6.302-16.873-16.426-13.312-22.594 1.782-3.083 5.6-4.606 10.345-4.562zM275.5 103.188c4.744.044 10.386 1.66 15.844 4.812 10.916 6.302 16.874 16.395 13.312 22.563-3.56 6.167-15.27 6.083-26.187-.22-10.918-6.302-16.906-16.425-13.345-22.593 1.78-3.084 5.63-4.607 10.375-4.563zm138.688 35.468c4.743.044 10.416 1.662 15.875 4.813 10.916 6.3 16.873 16.393 13.312 22.56-3.56 6.17-15.302 6.054-26.22-.25-10.915-6.3-16.873-16.393-13.31-22.56 1.78-3.085 5.6-4.608 10.342-4.564zm-62.813 8.375c4.744.045 10.417 1.63 15.875 4.782 10.916 6.303 16.874 16.426 13.313 22.594-3.562 6.168-15.303 6.053-26.22-.25-10.916-6.302-16.873-16.426-13.312-22.594 1.782-3.083 5.6-4.575 10.345-4.53zm-75.906 20.25c5.026 3.787 10.32 7.44 15.842 10.94l-41.718 72.25c-5.707-3.656-11.103-7.494-16.188-11.47l42.063-71.72zm32 20.345c41.19 21.913 83.48 29.3 113.78 22.063l-29.78 51.593c-7.556 13.086-24.873 20.578-49.283 20.22-22.31-.327-49.572-7.498-76.437-21.625l41.72-72.25z"/>
  </symbol>
  <symbol id="ic-ship" viewBox="0 0 512 512">
    <path fill="currentColor" d="M80 23v18h23v14h18V41h23V23zm-8.2 50L42.38 279H135V144.5H95.5v-49H135V73zM185 137v46h78v-46zm96 0v46h78v-46zm96 0v46h78v-46zm-192 64v46h78v-46zm96 0v46h78v-46zm96 0v46h78v-46zm-192 64v46h78v-46zm96 0v46h19.3l32-32H359v-14zm96 0v14h78v-14zM27.22 297l24.11 108.5C76.75 398.1 105.7 391 128 391c24.2 0 46.2 8.6 67.2 16.6 21 8 41 15.4 60.8 15.4 19.8 0 39.8-7.4 60.8-15.4 19-7.2 38.9-15 60.5-16.4l-44.1-14.7 5.6-17 36.2 12V345h-17v-18h17v-30h-35.3l-32 32H154.4l-16-32zM393 297v30h17v18h-17v26.5l36.2-12 5.6 17-44 14.7c12.1.7 25.7 3.1 39.4 6.2 5.4-7.1 10.8-15.3 16.1-24 14.9-24.9 28.2-53.9 36.8-76.4zM128 407c-24.2 0-56.26 8.3-83.09 16.4-10.02 3-19.26 6-26.91 8.7v19c8.36-3 19.57-6.7 32.11-10.5C76.28 432.7 108.2 425 128 425c19.8 0 39.8 7.4 60.8 15.4s43 16.6 67.2 16.6c24.2 0 46.2-8.6 67.2-16.6 21-8 41-15.4 60.8-15.4 19.8 0 51.7 7.7 77.9 15.6 12.5 3.8 23.7 7.5 32.1 10.5v-19c-7.7-2.6-16.9-5.7-26.9-8.7-26.8-8.1-58.9-16.4-83.1-16.4-24.2 0-46.2 8.6-67.2 16.6-21 8-41 15.4-60.8 15.4-19.8 0-39.8-7.4-60.8-15.4S152.2 407 128 407zm0 36c-24.2 0-56.26 8.3-83.09 16.4-10.02 3-19.26 6-26.91 8.7v19c8.36-3 19.57-6.7 32.11-10.5C76.28 468.7 108.2 461 128 461c19.8 0 39.8 7.4 60.8 15.4s43 16.6 67.2 16.6c24.2 0 46.2-8.6 67.2-16.6 21-8 41-15.4 60.8-15.4 19.8 0 51.7 7.7 77.9 15.6 12.5 3.8 23.7 7.5 32.1 10.5v-19c-7.7-2.6-16.9-5.7-26.9-8.7-26.8-8.1-58.9-16.4-83.1-16.4-24.2 0-46.2 8.6-67.2 16.6-21 8-41 15.4-60.8 15.4-19.8 0-39.8-7.4-60.8-15.4S152.2 443 128 443z"/>
  </symbol>
  <symbol id="ic-silted" viewBox="0 0 512 512">
    <path fill="currentColor" d="M220.09 25.297c-34.308 4.9-67.18 17.336-94.668 37.256l69.03 139.824-109.487-99.363c-28.304 39.302-42.5 93.27-31.61 163.675l15.22 94.37 70.474-13.275 3.458 18.365-15.444 2.91 44.65 127.653H197.2l-7.827-62.03 18.533-2.34 8.123 64.37h29.72V431.22h18.688v65.493h29.724l8.12-64.37 18.536 2.34-7.828 62.03h25.578l44.465-127.135-18.195-3.428 3.46-18.365 70.362 13.252 18.28-94.455c10.763-69.744-3.717-123.52-32.372-162.865l-108.713 98.66L384.36 63.613c-27.52-20.056-60.386-32.763-94.653-37.982l-34.52 164.485L220.09 25.297zm-92.182 192.266c4.232.063 8.63.81 13.186 2.208-7.603 6.918-12.375 16.89-12.375 27.978 0 20.887 16.93 37.816 37.813 37.816 15.928 0 29.548-9.85 35.12-23.793l29.136 22.365-81.8 26.383-.226.062c-15.9 4.26-30.327.71-40.15-7.498-9.82-8.21-15.218-20.12-17.12-32.207-1.902-12.086-.44-24.64 5.342-35.068 5.78-10.43 17.11-18.454 31.072-18.244zm216.53 16.656c-1.612 4.2-2.502 8.76-2.502 13.528 0 20.887 16.93 37.816 37.814 37.816s37.814-16.93 37.814-37.816c0-.565-.018-1.125-.043-1.684 2.2 7.927 2.488 16.48 1.177 24.81-1.902 12.087-7.3 24-17.12 32.208-9.823 8.21-24.248 11.76-40.15 7.498l-.226-.062-81.8-26.383 65.038-49.916zm-89.21 57.173l40.026 101.834-17.07 7.064-22.957-35.558-22.957 35.56-17.66-7.065 40.617-101.834z"/>
  </symbol>
  <symbol id="ic-piece" viewBox="0 0 512 512">
    <path fill="currentColor" fill-rule="evenodd" d="M182.3,0.0L178.2,31.2L128.0,81.4L128.0,89.1L116.2,93.2L116.2,100.9L58.4,159.2L58.4,166.9L46.6,170.5L46.6,178.2L15.4,205.8L15.4,213.5L0.0,224.8L0.0,240.6L46.6,240.6L46.6,361.0L50.2,368.6L66.0,368.6L66.0,388.1L73.7,388.1L89.1,411.1L73.7,446.0L66.0,446.0L66.0,461.8L46.6,469.5L46.6,484.9L201.7,516.1L325.6,516.1L465.4,484.9L465.4,465.4L450.0,461.8L450.0,446.0L442.4,446.0L426.5,411.1L438.3,391.7L450.0,388.1L450.0,368.6L465.4,368.6L469.5,240.6L512.0,240.6L516.1,224.8L426.5,132.1L426.5,123.9L411.1,116.2L411.1,108.5L361.0,58.4L361.0,50.2L349.2,46.6L349.2,38.9L337.4,31.2L333.8,0.0L186.4,0.0ZM221.2,384.0L294.9,384.0L302.6,403.5L298.5,442.4L221.2,442.4L221.2,430.6L213.5,430.6L213.5,403.5L221.2,399.4L221.2,388.1ZM132.1,376.3L151.0,379.9L166.9,407.0L128.0,442.4L108.5,411.1L132.1,379.9ZM379.9,376.3L403.5,403.5L403.5,422.9L395.8,426.5L391.7,442.4L384.0,442.4L352.8,411.1L364.5,379.9L379.9,379.9ZM166.9,426.5L178.2,426.5L186.4,446.0L143.4,453.6L166.9,430.6ZM341.5,426.5L349.2,426.5L372.2,450.0L337.4,450.0L333.8,438.3L341.5,430.6ZM96.8,434.2L105.0,434.2L116.2,453.6L93.2,457.7L89.1,446.0L96.8,438.3ZM411.1,434.2L418.8,434.2L426.5,446.0L422.9,457.7L403.5,457.7L403.5,446.0L411.1,438.3ZM395.8,248.3L403.5,256.0L399.4,275.5L388.1,275.5L388.1,251.9L395.8,251.9ZM123.9,251.9L139.8,251.9L139.8,275.5L123.9,275.5L123.9,256.0ZM151.0,251.9L166.9,251.9L166.9,275.5L151.0,275.5L151.0,256.0ZM364.5,251.9L379.9,256.0L376.3,275.5L364.5,275.5L364.5,256.0ZM123.9,283.1L139.8,283.1L139.8,306.2L123.9,306.2L123.9,287.2ZM391.7,283.1L403.5,287.2L403.5,306.2L388.1,306.2L391.7,287.2ZM96.8,372.2L108.5,376.3L100.9,395.8L93.2,391.7L96.8,376.3ZM411.1,372.2L422.9,376.3L418.8,395.8L407.0,384.0L411.1,376.3Z"/>
  </symbol>
  <symbol id="ic-station" viewBox="0 0 512 512">
    <path fill="currentColor" d="M17 17v104.2l86 23.7V17zm0 122.8c-1.4 99.4 1.35 296.5 1 296.7.12 0 .23-.1.35-.2C31.89 428 48.05 419 64 419c15.97 0 27.59 10 37.6 18 10 8 18.5 14 26.4 14 3 0 6.1-.9 9.3-2.4l90.9-250.5zm86 68.2h18v18l23 5.2-4 17.6-19-4.3v58.9c1.2-1.4 2.3-2.7 3.4-4.2 5.6-7.5 9.6-15.3 9.6-15.3l16 8.2s-4.5 8.9-11.2 17.9c-3.3 4.4-7.2 9-11.9 12.7-4.7 3.7-10.6 7-17.8 6.3-8.2-.9-14.33-5.9-19.04-11.5-4.7-5.5-8.35-12-11.36-18.3-6.02-12.7-9.37-24.8-9.37-24.8l17.34-4.8s3.08 10.9 8.28 21.8c2.38 5 5.25 9.9 8.05 13.5v-64.5l-24.98-5.6 3.96-17.6 21.02 4.7zm132.8 22l-8.6 23.7c10.2 17.5 23.3 29.8 38.1 37.8 18.8 10.1 40.1 13.2 61.7 13.5v-18c-19.8-.3-38-3.3-53.2-11.4-15.6-8.3-28.6-21.9-38-45.6zm84.2 17v18h25v46h30v-46h25v-18zm-55 82v46h46v-46zm64 0v46h110v-46h-46zm128 0v46h30v-46zm-227.4 5.3c-2 .1-3.9.5-5.5 1.3-3.1 1.5-5.6 3.9-7.9 6.6-4.5 5.6-8.3 13.3-10.9 22.6-2.6 9.2-3.7 18.2-3 26.4.3 4.1 1 8 2.6 11.8 1.7 3.8 4.6 7.9 9 10 4.3 2.1 8.5 1.6 11.7.1 3.2-1.4 5.6-3.9 7.9-6.6 4.6-5.6 8.3-13.3 11-22.6 2.6-9.2 3.6-18.2 3-26.4-.4-4-1-8-2.7-11.7-1.7-3.9-4.6-8-8.9-10.1-2.1-1.1-4.3-1.4-6.3-1.4zm.7 21.1c0 .6.2.7.2 1.3.4 4.7-.2 12-2.3 19.3-2.1 7.3-5.2 13.3-7.9 16.5-.3.5-.5.4-.8.8-.1-.6-.2-.7-.3-1.3-.4-4.7.3-12 2.4-19.3 2-7.3 5.2-13.3 7.8-16.5.4-.5.6-.4.9-.8zM265 393v46h110v-46zm128 0v46h94v-46zM64 437c-4.68 0-12.17 2.5-20.09 6.1-9.03 3.4-17.74 8.4-25.57 13.2-.12.1-.22.1-.34.2V478c2.94-2 6.22-4.1 9.77-6.3C40.26 464 56.1 457 64 457c7.9 0 16.34 6 26.37 14 10.03 8 21.63 18 37.63 18 16 0 27.6-10 37.6-18s18.5-14 26.4-14c7.9 0 23.8 7 36.2 14.7 8.3 5 15 9.9 18.8 12.7v-22c-2.8-2-6-4-9.3-6.1C224.1 448 208 439 192 439c-16 0-27.6 10-37.6 18s-18.5 14-26.4 14c-7.9 0-16.4-6-26.4-14-7.14-5.7-15.08-12.4-24.8-15.8-4.5-2.6-8.72-4.2-12.8-4.2zm201 20v30h46v-30zm64 0v30h110v-30zm128 0v30h30v-30z"/>
  </symbol>
  <symbol id="ic-survey" viewBox="0 0 512 512">
    <path fill="currentColor" d="M90.53 23c-18.345 0-36.688 7.002-50.686 21-27.996 27.996-27.994 73.38 0 101.375 21.776 21.776 54.08 26.603 80.53 14.5l53.69 53.688c-21.425 19.696-44 38.257-67.44 55.937l30.126 30.125c18.734-22.545 37.953-44.474 57.844-65.53l169.594 169.593c-51.845 40.444-120.866 53.838-192.813 42.562L173 424.906 72.47 404.47l95.405 88.405 1.97-26c86.593 36.97 177.603 34.61 241.343-11.75l63.062 21.313-21.47-63.594c44.61-63.62 46.408-153.412 9.908-238.875l26.03-1.97-88.406-95.375 20.438 100.53 21.344-1.624c11.278 71.983-2.168 141.017-42.656 192.876l-169.782-169.75c21.075-20.34 42.93-39.665 65.78-57.72l-30.123-30.124c-17.015 24.154-35.673 46.66-55.688 67.813l-53.97-53.97C167.834 98.183 163.032 65.814 141.22 44c-14-13.998-32.343-21-50.69-21zm0 27.03c11.434.002 22.872 4.34 31.595 13.064 17.447 17.447 17.446 45.742 0 63.187-17.446 17.447-45.71 17.447-63.156 0-17.447-17.444-17.448-45.74 0-63.186C67.69 54.37 79.097 50.03 90.53 50.03z"/>
  </symbol>
  <symbol id="ic-tayo" viewBox="0 0 512 512">
    <path fill="currentColor" d="M109.902 35.87l-71.14 59.284h142.28l-71.14-59.285zm288 32l-71.14 59.284h142.28l-71.14-59.285zM228.73 84.403l-108.9 90.75h217.8l-108.9-90.75zm-173.828 28.75v62h36.81l73.19-60.992v-1.008h-110zm23 14h16v18h-16v-18zm265 18v10.963l23 19.166v-16.13h16v18h-13.756l.104.087 19.098 15.914h-44.446v14h78v-39h18v39h14v-62h-110zm-194.345 48v20.08l24.095-20.08h-24.095zm28.158 0l105.1 87.582 27.087-22.574v-65.008H176.715zm74.683 14h35.735v34h-35.735v-34zm-76.714 7.74L30.37 335.153H319l-144.314-120.26zm198.046 13.51l-76.857 64.047 32.043 26.704H481.63l-108.9-90.75zm-23.214 108.75l.103.086 19.095 15.914h-72.248v77.467h60.435v-63.466h50v63.467h46v-93.466H349.516zm-278.614 16V476.13h126v-76.976h50v76.977h31.565V353.155H70.902zm30 30h50v50h-50v-50z"/>
  </symbol>
  <symbol id="ic-timber" viewBox="0 0 512 512">
    <path fill="currentColor" d="M249.28 19.188v.25c-18.114 38.634-45.065 72.36-77.686 102.937l37.72-3.938-51.345 65.032 24.81-7.907-33.624 54.875 16.53 9.843-65.25 92.157 36.095.188-51.686 83.594 63.562-8.126 12 32.094 66.438-25.282L215.5 493.28h52.938l-6.532-68.217 38.188 16.406 10.187-24.783 44.283 20.97 56.406-20.75-37.064-64.094-12.437-2.282 6.78 17.19 7.844 19.905-19.938-7.78-50.906-19.908V395.688l-14.156-8.594-69.375-42-21.595 21.25-18.03 17.75 2.155-25.22 2.125-24.655 18.188 1.56 9.218-9.092 5.19-5.094 6.218 3.75 61.375 37.156v-29.906l12.75 4.97 43.718 17.092-5.092-12.906-6.157-15.656 16.533 3.03 45.468 8.345-34.53-38.94-23.625 14.033-6.688 3.968-5.125-5.874-14.28-16.437.218 1.217-18.406 3.22-5.97-34.313-5.75-33.063 22 25.345 31.188 35.875 43.907-26.03c-24.67-19.543-39.507-33.87-49.658-48.814l.813 12.656 1.97 31-18.75-24.75-34.47-45.437-22.25 46.813-13.844 29.125-3.843-32.032-3.5-28.843 16.532-1.968 16.624-34.97 6.594-13.875 9.28 12.22 25 32.936-.75-11.53-.906-14.28 13.47 4.936L341.81 188l-26.125-35.156-55.843-28.875-8.938 20.218-9.656 21.937-7.72-22.688-7.468-21.875 16.97-5.78 3.718-8.438 4-9.125 8.844 4.593 49.375 25.53 16.467-5.562c-43.42-34.31-64.63-68.886-76.156-103.593z"/>
  </symbol>
  <symbol id="ic-waves" viewBox="0 0 512 512">
    <path fill="currentColor" d="M400.9 104.8c-12 30-41 47.9-99.7 43.9-13.7-1.8-27.6-4.1-41.6-6.7-119.1-37.2-236.24-37.2-236.24 37.2 33.48-37.2 117.74-30.8 225.04-4 116.8 29.2 241.8 41.2 241.8-51.8-18.4 19.3-53.4 28.6-96.6 30.4 10-10.4 12.5-26.7 7.3-49zM147 187.5c-70.75-.3-123.64 16.1-123.64 66.1 33.48-37.2 117.74-34.8 225.04-8 116.8 29.2 241.8 45.2 241.8-47.8-35.4 37.2-130.2 39.6-230.6 8-37.7-11.9-78-18.2-112.6-18.3zm-23.9 69.6c-58.44-.2-99.74 15.6-99.74 70.9 33.48-37.2 122.34-44.3 225.04-18.6 121 30.2 241.8 37.2 241.8-37.2-35.4 37.2-132.1 22.6-230.6 4-48.4-7.5-96.5-19.1-136.5-19.1zm0 74.3c-58.44-.1-99.74 15.8-99.74 71 19.03-21.1 55.52-30.3 102.54-30.8-10.4 10.4-12.9 26.9-7.7 49.4 13.9-34.8 52-51.8 130.3-37.2 122.6 22.8 241.7 37.2 241.7-37.2-35.4 37.2-132.1 18.6-230.6 0-48.4-7.6-96.5-15.1-136.5-15.2z"/>
  </symbol>
</svg>
